<?xml version="1.0"?>
<svg xmlns="http://www.w3.org/2000/svg" xmlns:xlink="http://www.w3.org/1999/xlink" xmlns:ev="http://www.w3.org/2001/xml-events" version="1.1" baseProfile="full" viewBox="13 13 236 235">
	<g>
		<g>
			<polygon points="58.5,20.5652,55.4159,20.7901,55.6729,19.3123," stroke="#000000" stroke-width="1.000000px" />
			<path fill="none" d=" M38,17 L58.5,20.5652" stroke="#000000" stroke-width="1.000000px" />
		</g>
		<g>
			<polygon points="115.5,18.8864,112.469,19.4994,112.537,18.0009," stroke="#000000" stroke-width="1.000000px" />
			<path fill="none" d=" M96,18 L115.5,18.8864" stroke="#000000" stroke-width="1.000000px" />
		</g>
		<g>
			<polygon points="133.5,171.114,136.531,170.501,136.463,171.999," stroke="#000000" stroke-width="1.000000px" />
			<path fill="none" d=" M153,172 L133.5,171.114" stroke="#000000" stroke-width="1.000000px" />
		</g>
		<g>
			<polygon points="58.5,133.357,55.6362,134.524,55.4241,133.039," stroke="#000000" stroke-width="1.000000px" />
			<path fill="none" d=" M40,136 L58.5,133.357" stroke="#000000" stroke-width="1.000000px" />
		</g>
		<g />
		<g>
			<polygon points="229.5,96.7727,226.444,97.248,226.58,95.7542," stroke="#000000" stroke-width="1.000000px" />
			<path fill="none" d=" M210,95 L229.5,96.7727" stroke="#000000" stroke-width="1.000000px" />
		</g>
		<g>
			<polygon points="19.5,207.114,22.531,206.501,22.4628,207.999," stroke="#000000" stroke-width="1.000000px" />
			<path fill="none" d=" M39,208 L19.5,207.114" stroke="#000000" stroke-width="1.000000px" />
		</g>
		<g>
			<polygon points="76.5,243.114,79.531,242.501,79.4628,243.999," stroke="#000000" stroke-width="1.000000px" />
			<path fill="none" d=" M96,244 L76.5,243.114" stroke="#000000" stroke-width="1.000000px" />
		</g>
		<g>
			<polygon points="37.5,135.674,34.4282,136.03,34.6222,134.542," stroke="#000000" stroke-width="1.000000px" />
			<path fill="none" d=" M17,133 L37.5,135.674" stroke="#000000" stroke-width="1.000000px" />
		</g>
		<g>
			<polygon points="19.5,17.881,22.4609,16.9891,22.5323,18.4874," stroke="#000000" stroke-width="1.000000px" />
			<path fill="none" d=" M38,17 L19.5,17.881" stroke="#000000" stroke-width="1.000000px" />
		</g>
		<g>
			<polygon points="36.5,243.886,33.469,244.499,33.5372,243.001," stroke="#000000" stroke-width="1.000000px" />
			<path fill="none" d=" M17,243 L36.5,243.886" stroke="#000000" stroke-width="1.000000px" />
		</g>
		<g>
			<polygon points="207.5,243.886,204.469,244.499,204.537,243.001," stroke="#000000" stroke-width="1.000000px" />
			<path fill="none" d=" M188,243 L207.5,243.886" stroke="#000000" stroke-width="1.000000px" />
		</g>
		<g>
			<polygon points="172.5,96.7727,169.444,97.248,169.58,95.7542," stroke="#000000" stroke-width="1.000000px" />
			<path fill="none" d=" M153,95 L172.5,96.7727" stroke="#000000" stroke-width="1.000000px" />
		</g>
		<g>
			<polygon points="155.5,57.1136,158.531,56.5006,158.463,57.9991," stroke="#000000" stroke-width="1.000000px" />
			<path fill="none" d=" M175,58 L155.5,57.1136" stroke="#000000" stroke-width="1.000000px" />
		</g>
		<g>
			<polygon points="76.5,171.114,79.531,170.501,79.4628,171.999," stroke="#000000" stroke-width="1.000000px" />
			<path fill="none" d=" M96,172 L76.5,171.114" stroke="#000000" stroke-width="1.000000px" />
		</g>
		<g>
			<polygon points="98.5,95.2273,101.556,94.752,101.42,96.2458," stroke="#000000" stroke-width="1.000000px" />
			<path fill="none" d=" M118,97 L98.5,95.2273" stroke="#000000" stroke-width="1.000000px" />
		</g>
		<g>
			<polygon points="212.5,18.1136,215.531,17.5006,215.463,18.9991," stroke="#000000" stroke-width="1.000000px" />
			<path fill="none" d=" M232,19 L212.5,18.1136" stroke="#000000" stroke-width="1.000000px" />
		</g>
		<g>
			<polygon points="114.5,133,111.5,133.75,111.5,132.25," stroke="#000000" stroke-width="1.000000px" />
			<path fill="none" d=" M96,133 L114.5,133" stroke="#000000" stroke-width="1.000000px" />
		</g>
		<g>
			<polygon points="35.5,94.119,32.5391,95.0109,32.4677,93.5126," stroke="#000000" stroke-width="1.000000px" />
			<path fill="none" d=" M17,95 L35.5,94.119" stroke="#000000" stroke-width="1.000000px" />
		</g>
		<g>
			<polygon points="76.5,207.114,79.531,206.501,79.4628,207.999," stroke="#000000" stroke-width="1.000000px" />
			<path fill="none" d=" M96,208 L76.5,207.114" stroke="#000000" stroke-width="1.000000px" />
		</g>
		<g>
			<polygon points="133.5,207.114,136.531,206.501,136.463,207.999," stroke="#000000" stroke-width="1.000000px" />
			<path fill="none" d=" M153,208 L133.5,207.114" stroke="#000000" stroke-width="1.000000px" />
		</g>
		<g>
			<polygon points="58.5,58.6739,55.4282,59.0296,55.6222,57.5422," stroke="#000000" stroke-width="1.000000px" />
			<path fill="none" d=" M38,56 L58.5,58.6739" stroke="#000000" stroke-width="1.000000px" />
		</g>
		<g />
		<g>
			<polygon points="35.5,56.119,32.5391,57.0109,32.4677,55.5126," stroke="#000000" stroke-width="1.000000px" />
			<path fill="none" d=" M17,57 L35.5,56.119" stroke="#000000" stroke-width="1.000000px" />
		</g>
		<g>
			<polygon points="212.5,57.1136,215.531,56.5006,215.463,57.9991," stroke="#000000" stroke-width="1.000000px" />
			<path fill="none" d=" M232,58 L212.5,57.1136" stroke="#000000" stroke-width="1.000000px" />
		</g>
		<g>
			<polygon points="155.5,18.1136,158.531,17.5006,158.463,18.9991," stroke="#000000" stroke-width="1.000000px" />
			<path fill="none" d=" M175,19 L155.5,18.1136" stroke="#000000" stroke-width="1.000000px" />
		</g>
		<g>
			<polygon points="216.5,134.886,213.469,135.499,213.537,134.001," stroke="#000000" stroke-width="1.000000px" />
			<path fill="none" d=" M197,134 L216.5,134.886" stroke="#000000" stroke-width="1.000000px" />
		</g>
		<g>
			<polygon points="58.5,97.5652,55.4159,97.7901,55.6729,96.3123," stroke="#000000" stroke-width="1.000000px" />
			<path fill="none" d=" M38,94 L58.5,97.5652" stroke="#000000" stroke-width="1.000000px" />
		</g>
		<g>
			<polygon points="190.5,207.114,193.531,206.501,193.463,207.999," stroke="#000000" stroke-width="1.000000px" />
			<path fill="none" d=" M210,208 L190.5,207.114" stroke="#000000" stroke-width="1.000000px" />
		</g>
		<g>
			<polygon points="98.5,57.1136,101.531,56.5006,101.463,57.9991," stroke="#000000" stroke-width="1.000000px" />
			<path fill="none" d=" M118,58 L98.5,57.1136" stroke="#000000" stroke-width="1.000000px" />
		</g>
		<g>
			<polygon points="119.5,133.109,122.53,132.49,122.465,133.988," stroke="#000000" stroke-width="1.000000px" />
			<path fill="none" d=" M140,134 L119.5,133.109" stroke="#000000" stroke-width="1.000000px" />
		</g>
		<g>
			<polygon points="36.5,171.886,33.469,172.499,33.5372,171.001," stroke="#000000" stroke-width="1.000000px" />
			<path fill="none" d=" M17,171 L36.5,171.886" stroke="#000000" stroke-width="1.000000px" />
		</g>
		<g>
			<polygon points="150.5,243.886,147.469,244.499,147.537,243.001," stroke="#000000" stroke-width="1.000000px" />
			<path fill="none" d=" M131,243 L150.5,243.886" stroke="#000000" stroke-width="1.000000px" />
		</g>
		<g>
			<polygon points="142.5,134.227,145.556,133.752,145.42,135.246," stroke="#000000" stroke-width="1.000000px" />
			<path fill="none" d=" M162,136 L142.5,134.227" stroke="#000000" stroke-width="1.000000px" />
		</g>
		<g>
			<polygon points="207.5,171.886,204.469,172.499,204.537,171.001," stroke="#000000" stroke-width="1.000000px" />
			<path fill="none" d=" M188,171 L207.5,171.886" stroke="#000000" stroke-width="1.000000px" />
		</g>
	</g>
	<g>
		<rect x="115.5" y="94.5" width="5" height="5" fill="#FFFFFF" stroke-width="1.000000px" stroke="#000000" />
		<text x="118" y="97" text-anchor="middle" dominant-baseline="middle" font-family="Arial" font-size="10" fill="#000000">659</text>
	</g>
	<g>
		<rect x="115.5" y="55.5" width="5" height="5" fill="#FFFFFF" stroke-width="1.000000px" stroke="#000000" />
		<text x="118" y="58" text-anchor="middle" dominant-baseline="middle" font-family="Arial" font-size="10" fill="#000000">2189</text>
	</g>
	<g>
		<rect x="93.5" y="54.5" width="5" height="5" fill="#FFFFFF" stroke-width="1.000000px" stroke="#000000" />
		<text x="96" y="57" text-anchor="middle" dominant-baseline="middle" font-family="Arial" font-size="10" fill="#000000">2175</text>
	</g>
	<g>
		<rect x="115.5" y="16.5" width="5" height="5" fill="#FFFFFF" stroke-width="1.000000px" stroke="#000000" />
		<text x="118" y="19" text-anchor="middle" dominant-baseline="middle" font-family="Arial" font-size="10" fill="#000000">3932</text>
	</g>
	<g>
		<rect x="36.5" y="169.5" width="5" height="5" fill="#FFFFFF" stroke-width="1.000000px" stroke="#000000" />
		<text x="39" y="172" text-anchor="middle" dominant-baseline="middle" font-family="Arial" font-size="10" fill="#000000">7416</text>
	</g>
	<g>
		<rect x="93.5" y="169.5" width="5" height="5" fill="#FFFFFF" stroke-width="1.000000px" stroke="#000000" />
		<text x="96" y="172" text-anchor="middle" dominant-baseline="middle" font-family="Arial" font-size="10" fill="#000000">10459</text>
	</g>
	<g>
		<rect x="150.5" y="169.5" width="5" height="5" fill="#FFFFFF" stroke-width="1.000000px" stroke="#000000" />
		<text x="153" y="172" text-anchor="middle" dominant-baseline="middle" font-family="Arial" font-size="10" fill="#000000">85236</text>
	</g>
	<g>
		<rect x="58.5" y="18.5" width="5" height="5" fill="#FFFFFF" stroke-width="1.000000px" stroke="#000000" />
		<text x="61" y="21" text-anchor="middle" dominant-baseline="middle" font-family="Arial" font-size="10" fill="#000000">1616</text>
	</g>
	<g>
		<rect x="242.5" y="241.5" width="5" height="5" fill="#FFFFFF" stroke-width="1.000000px" stroke="#000000" />
		<text x="245" y="244" text-anchor="middle" dominant-baseline="middle" font-family="Arial" font-size="10" fill="#000000">7046</text>
	</g>
	<g>
		<rect x="172.5" y="16.5" width="5" height="5" fill="#FFFFFF" stroke-width="1.000000px" stroke="#000000" />
		<text x="175" y="19" text-anchor="middle" dominant-baseline="middle" font-family="Arial" font-size="10" fill="#000000">5079</text>
	</g>
	<g>
		<rect x="172.5" y="55.5" width="5" height="5" fill="#FFFFFF" stroke-width="1.000000px" stroke="#000000" />
		<text x="175" y="58" text-anchor="middle" dominant-baseline="middle" font-family="Arial" font-size="10" fill="#000000">928</text>
	</g>
	<g>
		<rect x="58.5" y="56.5" width="5" height="5" fill="#FFFFFF" stroke-width="1.000000px" stroke="#000000" />
		<text x="61" y="59" text-anchor="middle" dominant-baseline="middle" font-family="Arial" font-size="10" fill="#000000">999</text>
	</g>
	<g>
		<rect x="172.5" y="94.5" width="5" height="5" fill="#FFFFFF" stroke-width="1.000000px" stroke="#000000" />
		<text x="175" y="97" text-anchor="middle" dominant-baseline="middle" font-family="Arial" font-size="10" fill="#000000">7409</text>
	</g>
	<g>
		<rect x="150.5" y="54.5" width="5" height="5" fill="#FFFFFF" stroke-width="1.000000px" stroke="#000000" />
		<text x="153" y="57" text-anchor="middle" dominant-baseline="middle" font-family="Arial" font-size="10" fill="#000000">3675</text>
	</g>
	<g>
		<rect x="128.5" y="168.5" width="5" height="5" fill="#FFFFFF" stroke-width="1.000000px" stroke="#000000" />
		<text x="131" y="171" text-anchor="middle" dominant-baseline="middle" font-family="Arial" font-size="10" fill="#000000">7290</text>
	</g>
	<g>
		<rect x="36.5" y="205.5" width="5" height="5" fill="#FFFFFF" stroke-width="1.000000px" stroke="#000000" />
		<text x="39" y="208" text-anchor="middle" dominant-baseline="middle" font-family="Arial" font-size="10" fill="#000000">821</text>
	</g>
	<g>
		<rect x="93.5" y="205.5" width="5" height="5" fill="#FFFFFF" stroke-width="1.000000px" stroke="#000000" />
		<text x="96" y="208" text-anchor="middle" dominant-baseline="middle" font-family="Arial" font-size="10" fill="#000000">5296</text>
	</g>
	<g>
		<rect x="150.5" y="205.5" width="5" height="5" fill="#FFFFFF" stroke-width="1.000000px" stroke="#000000" />
		<text x="153" y="208" text-anchor="middle" dominant-baseline="middle" font-family="Arial" font-size="10" fill="#000000">6874</text>
	</g>
	<g>
		<rect x="150.5" y="15.5" width="5" height="5" fill="#FFFFFF" stroke-width="1.000000px" stroke="#000000" />
		<text x="153" y="18" text-anchor="middle" dominant-baseline="middle" font-family="Arial" font-size="10" fill="#000000">5925</text>
	</g>
	<g>
		<rect x="137.5" y="131.5" width="5" height="5" fill="#FFFFFF" stroke-width="1.000000px" stroke="#000000" />
		<text x="140" y="134" text-anchor="middle" dominant-baseline="middle" font-family="Arial" font-size="10" fill="#000000">1387</text>
	</g>
	<g>
		<rect x="128.5" y="204.5" width="5" height="5" fill="#FFFFFF" stroke-width="1.000000px" stroke="#000000" />
		<text x="131" y="207" text-anchor="middle" dominant-baseline="middle" font-family="Arial" font-size="10" fill="#000000">6883</text>
	</g>
	<g>
		<rect x="93.5" y="92.5" width="5" height="5" fill="#FFFFFF" stroke-width="1.000000px" stroke="#000000" />
		<text x="96" y="95" text-anchor="middle" dominant-baseline="middle" font-family="Arial" font-size="10" fill="#000000">657</text>
	</g>
	<g>
		<rect x="207.5" y="205.5" width="5" height="5" fill="#FFFFFF" stroke-width="1.000000px" stroke="#000000" />
		<text x="210" y="208" text-anchor="middle" dominant-baseline="middle" font-family="Arial" font-size="10" fill="#000000">695</text>
	</g>
	<g>
		<rect x="242.5" y="204.5" width="5" height="5" fill="#FFFFFF" stroke-width="1.000000px" stroke="#000000" />
		<text x="245" y="207" text-anchor="middle" dominant-baseline="middle" font-family="Arial" font-size="10" fill="#000000">1439</text>
	</g>
	<g>
		<rect x="207.5" y="169.5" width="5" height="5" fill="#FFFFFF" stroke-width="1.000000px" stroke="#000000" />
		<text x="210" y="172" text-anchor="middle" dominant-baseline="middle" font-family="Arial" font-size="10" fill="#000000">2972</text>
	</g>
	<g>
		<rect x="216.5" y="132.5" width="5" height="5" fill="#FFFFFF" stroke-width="1.000000px" stroke="#000000" />
		<text x="219" y="135" text-anchor="middle" dominant-baseline="middle" font-family="Arial" font-size="10" fill="#000000">6921</text>
	</g>
	<g>
		<rect x="58.5" y="130.5" width="5" height="5" fill="#FFFFFF" stroke-width="1.000000px" stroke="#000000" />
		<text x="61" y="133" text-anchor="middle" dominant-baseline="middle" font-family="Arial" font-size="10" fill="#000000">23493</text>
	</g>
	<g>
		<rect x="114.5" y="130.5" width="5" height="5" fill="#FFFFFF" stroke-width="1.000000px" stroke="#000000" />
		<text x="117" y="133" text-anchor="middle" dominant-baseline="middle" font-family="Arial" font-size="10" fill="#000000">7157</text>
	</g>
	<g>
		<rect x="14.5" y="204.5" width="5" height="5" fill="#FFFFFF" stroke-width="1.000000px" stroke="#000000" />
		<text x="17" y="207" text-anchor="middle" dominant-baseline="middle" font-family="Arial" font-size="10" fill="#000000">3973</text>
	</g>
	<g>
		<rect x="229.5" y="16.5" width="5" height="5" fill="#FFFFFF" stroke-width="1.000000px" stroke="#000000" />
		<text x="232" y="19" text-anchor="middle" dominant-baseline="middle" font-family="Arial" font-size="10" fill="#000000">2063</text>
	</g>
	<g>
		<rect x="185.5" y="168.5" width="5" height="5" fill="#FFFFFF" stroke-width="1.000000px" stroke="#000000" />
		<text x="188" y="171" text-anchor="middle" dominant-baseline="middle" font-family="Arial" font-size="10" fill="#000000">5934</text>
	</g>
	<g>
		<rect x="14.5" y="130.5" width="5" height="5" fill="#FFFFFF" stroke-width="1.000000px" stroke="#000000" />
		<text x="17" y="133" text-anchor="middle" dominant-baseline="middle" font-family="Arial" font-size="10" fill="#000000">2034</text>
	</g>
	<g>
		<rect x="229.5" y="55.5" width="5" height="5" fill="#FFFFFF" stroke-width="1.000000px" stroke="#000000" />
		<text x="232" y="58" text-anchor="middle" dominant-baseline="middle" font-family="Arial" font-size="10" fill="#000000">9759</text>
	</g>
	<g>
		<rect x="93.5" y="130.5" width="5" height="5" fill="#FFFFFF" stroke-width="1.000000px" stroke="#000000" />
		<text x="96" y="133" text-anchor="middle" dominant-baseline="middle" font-family="Arial" font-size="10" fill="#000000">2033</text>
	</g>
	<g>
		<rect x="35.5" y="53.5" width="5" height="5" fill="#FFFFFF" stroke-width="1.000000px" stroke="#000000" />
		<text x="38" y="56" text-anchor="middle" dominant-baseline="middle" font-family="Arial" font-size="10" fill="#000000">1499</text>
	</g>
	<g>
		<rect x="93.5" y="15.5" width="5" height="5" fill="#FFFFFF" stroke-width="1.000000px" stroke="#000000" />
		<text x="96" y="18" text-anchor="middle" dominant-baseline="middle" font-family="Arial" font-size="10" fill="#000000">952</text>
	</g>
	<g>
		<rect x="194.5" y="131.5" width="5" height="5" fill="#FFFFFF" stroke-width="1.000000px" stroke="#000000" />
		<text x="197" y="134" text-anchor="middle" dominant-baseline="middle" font-family="Arial" font-size="10" fill="#000000">7428</text>
	</g>
	<g>
		<rect x="58.5" y="95.5" width="5" height="5" fill="#FFFFFF" stroke-width="1.000000px" stroke="#000000" />
		<text x="61" y="98" text-anchor="middle" dominant-baseline="middle" font-family="Arial" font-size="10" fill="#000000">3454</text>
	</g>
	<g>
		<rect x="35.5" y="14.5" width="5" height="5" fill="#FFFFFF" stroke-width="1.000000px" stroke="#000000" />
		<text x="38" y="17" text-anchor="middle" dominant-baseline="middle" font-family="Arial" font-size="10" fill="#000000">2113</text>
	</g>
	<g>
		<rect x="14.5" y="168.5" width="5" height="5" fill="#FFFFFF" stroke-width="1.000000px" stroke="#000000" />
		<text x="17" y="171" text-anchor="middle" dominant-baseline="middle" font-family="Arial" font-size="10" fill="#000000">581</text>
	</g>
	<g>
		<rect x="35.5" y="91.5" width="5" height="5" fill="#FFFFFF" stroke-width="1.000000px" stroke="#000000" />
		<text x="38" y="94" text-anchor="middle" dominant-baseline="middle" font-family="Arial" font-size="10" fill="#000000">7297</text>
	</g>
	<g>
		<rect x="207.5" y="54.5" width="5" height="5" fill="#FFFFFF" stroke-width="1.000000px" stroke="#000000" />
		<text x="210" y="57" text-anchor="middle" dominant-baseline="middle" font-family="Arial" font-size="10" fill="#000000">8841</text>
	</g>
	<g>
		<rect x="229.5" y="94.5" width="5" height="5" fill="#FFFFFF" stroke-width="1.000000px" stroke="#000000" />
		<text x="232" y="97" text-anchor="middle" dominant-baseline="middle" font-family="Arial" font-size="10" fill="#000000">6833</text>
	</g>
	<g>
		<rect x="159.5" y="133.5" width="5" height="5" fill="#FFFFFF" stroke-width="1.000000px" stroke="#000000" />
		<text x="162" y="136" text-anchor="middle" dominant-baseline="middle" font-family="Arial" font-size="10" fill="#000000">7161</text>
	</g>
	<g>
		<rect x="36.5" y="241.5" width="5" height="5" fill="#FFFFFF" stroke-width="1.000000px" stroke="#000000" />
		<text x="39" y="244" text-anchor="middle" dominant-baseline="middle" font-family="Arial" font-size="10" fill="#000000">3929</text>
	</g>
	<g>
		<rect x="14.5" y="240.5" width="5" height="5" fill="#FFFFFF" stroke-width="1.000000px" stroke="#000000" />
		<text x="17" y="243" text-anchor="middle" dominant-baseline="middle" font-family="Arial" font-size="10" fill="#000000">3078</text>
	</g>
	<g>
		<rect x="150.5" y="92.5" width="5" height="5" fill="#FFFFFF" stroke-width="1.000000px" stroke="#000000" />
		<text x="153" y="95" text-anchor="middle" dominant-baseline="middle" font-family="Arial" font-size="10" fill="#000000">396</text>
	</g>
	<g>
		<rect x="207.5" y="15.5" width="5" height="5" fill="#FFFFFF" stroke-width="1.000000px" stroke="#000000" />
		<text x="210" y="18" text-anchor="middle" dominant-baseline="middle" font-family="Arial" font-size="10" fill="#000000">2908</text>
	</g>
	<g>
		<rect x="93.5" y="241.5" width="5" height="5" fill="#FFFFFF" stroke-width="1.000000px" stroke="#000000" />
		<text x="96" y="244" text-anchor="middle" dominant-baseline="middle" font-family="Arial" font-size="10" fill="#000000">9111</text>
	</g>
	<g>
		<rect x="14.5" y="15.5" width="5" height="5" fill="#FFFFFF" stroke-width="1.000000px" stroke="#000000" />
		<text x="17" y="18" text-anchor="middle" dominant-baseline="middle" font-family="Arial" font-size="10" fill="#000000">113523636</text>
	</g>
	<g>
		<rect x="150.5" y="241.5" width="5" height="5" fill="#FFFFFF" stroke-width="1.000000px" stroke="#000000" />
		<text x="153" y="244" text-anchor="middle" dominant-baseline="middle" font-family="Arial" font-size="10" fill="#000000">6418</text>
	</g>
	<g>
		<rect x="14.5" y="54.5" width="5" height="5" fill="#FFFFFF" stroke-width="1.000000px" stroke="#000000" />
		<text x="17" y="57" text-anchor="middle" dominant-baseline="middle" font-family="Arial" font-size="10" fill="#000000">5664</text>
	</g>
	<g>
		<rect x="207.5" y="241.5" width="5" height="5" fill="#FFFFFF" stroke-width="1.000000px" stroke="#000000" />
		<text x="210" y="244" text-anchor="middle" dominant-baseline="middle" font-family="Arial" font-size="10" fill="#000000">4176</text>
	</g>
	<g>
		<rect x="71.5" y="204.5" width="5" height="5" fill="#FFFFFF" stroke-width="1.000000px" stroke="#000000" />
		<text x="74" y="207" text-anchor="middle" dominant-baseline="middle" font-family="Arial" font-size="10" fill="#000000">558</text>
	</g>
	<g>
		<rect x="71.5" y="240.5" width="5" height="5" fill="#FFFFFF" stroke-width="1.000000px" stroke="#000000" />
		<text x="74" y="243" text-anchor="middle" dominant-baseline="middle" font-family="Arial" font-size="10" fill="#000000">4613</text>
	</g>
	<g>
		<rect x="128.5" y="240.5" width="5" height="5" fill="#FFFFFF" stroke-width="1.000000px" stroke="#000000" />
		<text x="131" y="243" text-anchor="middle" dominant-baseline="middle" font-family="Arial" font-size="10" fill="#000000">4297</text>
	</g>
	<g>
		<rect x="37.5" y="133.5" width="5" height="5" fill="#FFFFFF" stroke-width="1.000000px" stroke="#000000" />
		<text x="40" y="136" text-anchor="middle" dominant-baseline="middle" font-family="Arial" font-size="10" fill="#000000">405</text>
	</g>
	<g>
		<rect x="185.5" y="204.5" width="5" height="5" fill="#FFFFFF" stroke-width="1.000000px" stroke="#000000" />
		<text x="188" y="207" text-anchor="middle" dominant-baseline="middle" font-family="Arial" font-size="10" fill="#000000">5587</text>
	</g>
	<g>
		<rect x="14.5" y="92.5" width="5" height="5" fill="#FFFFFF" stroke-width="1.000000px" stroke="#000000" />
		<text x="17" y="95" text-anchor="middle" dominant-baseline="middle" font-family="Arial" font-size="10" fill="#000000">5329</text>
	</g>
	<g>
		<rect x="207.5" y="92.5" width="5" height="5" fill="#FFFFFF" stroke-width="1.000000px" stroke="#000000" />
		<text x="210" y="95" text-anchor="middle" dominant-baseline="middle" font-family="Arial" font-size="10" fill="#000000">3767</text>
	</g>
	<g>
		<rect x="185.5" y="240.5" width="5" height="5" fill="#FFFFFF" stroke-width="1.000000px" stroke="#000000" />
		<text x="188" y="243" text-anchor="middle" dominant-baseline="middle" font-family="Arial" font-size="10" fill="#000000">2274</text>
	</g>
	<g>
		<rect x="71.5" y="168.5" width="5" height="5" fill="#FFFFFF" stroke-width="1.000000px" stroke="#000000" />
		<text x="74" y="171" text-anchor="middle" dominant-baseline="middle" font-family="Arial" font-size="10" fill="#000000">4085</text>
	</g>
</svg>
