<?xml version="1.0"?>
<svg xmlns="http://www.w3.org/2000/svg" xmlns:xlink="http://www.w3.org/1999/xlink" xmlns:ev="http://www.w3.org/2001/xml-events" version="1.1" baseProfile="full" viewBox="28.5 28.5 418 423">
	<g>
		<g>
			<polygon points="294.5,230,295.412,224.927,297.692,225.953," stroke="#000000" stroke-width="1.000000px" />
			<path fill="none" d=" M312.5,190 L294.5,230" stroke="#000000" stroke-width="1.000000px" />
		</g>
		<g>
			<polygon points="140,230,138.75,225,141.25,225," stroke="#000000" stroke-width="1.000000px" />
			<path fill="none" d=" M140,190 L140,225" stroke="#000000" stroke-width="1.000000px" />
		</g>
		<g>
			<polygon points="285,80,283.75,75,286.25,75," stroke="#000000" stroke-width="1.000000px" />
			<path fill="none" d=" M285,40 L285,75" stroke="#000000" stroke-width="1.000000px" />
		</g>
		<g>
			<polygon points="185,130,183.75,125,186.25,125," stroke="#000000" stroke-width="1.000000px" />
			<path fill="none" d=" M185,90 L185,125" stroke="#000000" stroke-width="1.000000px" />
		</g>
		<g />
		<g>
			<polygon points="435,80,433.75,75,436.25,75," stroke="#000000" stroke-width="1.000000px" />
			<path fill="none" d=" M435,40 L435,75" stroke="#000000" stroke-width="1.000000px" />
		</g>
		<g>
			<polygon points="140,330,138.75,325,141.25,325," stroke="#000000" stroke-width="1.000000px" />
			<path fill="none" d=" M140,290 L140,325" stroke="#000000" stroke-width="1.000000px" />
		</g>
		<g>
			<polygon points="40,430,38.75,425,41.25,425," stroke="#000000" stroke-width="1.000000px" />
			<path fill="none" d=" M40,390 L40,425" stroke="#000000" stroke-width="1.000000px" />
		</g>
		<g>
			<polygon points="185,80,183.75,75,186.25,75," stroke="#000000" stroke-width="1.000000px" />
			<path fill="none" d=" M185,40 L185,75" stroke="#000000" stroke-width="1.000000px" />
		</g>
		<g>
			<polygon points="330.5,230,327.308,225.953,329.588,224.927," stroke="#000000" stroke-width="1.000000px" />
			<path fill="none" d=" M312.5,190 L330.5,230" stroke="#000000" stroke-width="1.000000px" />
		</g>
		<g>
			<polygon points="435,230,433.75,225,436.25,225," stroke="#000000" stroke-width="1.000000px" />
			<path fill="none" d=" M435,190 L435,225" stroke="#000000" stroke-width="1.000000px" />
		</g>
		<g>
			<polygon points="140,430,138.75,425,141.25,425," stroke="#000000" stroke-width="1.000000px" />
			<path fill="none" d=" M140,390 L140,425" stroke="#000000" stroke-width="1.000000px" />
		</g>
		<g>
			<polygon points="90,330,88.75,325,91.25,325," stroke="#000000" stroke-width="1.000000px" />
			<path fill="none" d=" M90,290 L90,325" stroke="#000000" stroke-width="1.000000px" />
		</g>
		<g>
			<polygon points="40,330,38.75,325,41.25,325," stroke="#000000" stroke-width="1.000000px" />
			<path fill="none" d=" M40,290 L40,325" stroke="#000000" stroke-width="1.000000px" />
		</g>
		<g>
			<polygon points="240,230,238.75,225,241.25,225," stroke="#000000" stroke-width="1.000000px" />
			<path fill="none" d=" M240,190 L240,225" stroke="#000000" stroke-width="1.000000px" />
		</g>
		<g>
			<polygon points="40,230,38.75,225,41.25,225," stroke="#000000" stroke-width="1.000000px" />
			<path fill="none" d=" M40,190 L40,225" stroke="#000000" stroke-width="1.000000px" />
		</g>
		<g>
			<polygon points="385,230,383.75,225,386.25,225," stroke="#000000" stroke-width="1.000000px" />
			<path fill="none" d=" M385,190 L385,225" stroke="#000000" stroke-width="1.000000px" />
		</g>
		<g>
			<polygon points="117,130,117.912,124.927,120.192,125.953," stroke="#000000" stroke-width="1.000000px" />
			<path fill="none" d=" M135,90 L117,130" stroke="#000000" stroke-width="1.000000px" />
		</g>
		<g>
			<polygon points="235,80,233.75,75,236.25,75," stroke="#000000" stroke-width="1.000000px" />
			<path fill="none" d=" M235,40 L235,75" stroke="#000000" stroke-width="1.000000px" />
		</g>
		<g>
			<polygon points="190,330,188.75,325,191.25,325," stroke="#000000" stroke-width="1.000000px" />
			<path fill="none" d=" M190,290 L190,325" stroke="#000000" stroke-width="1.000000px" />
		</g>
		<g>
			<polygon points="240,330,238.75,325,241.25,325," stroke="#000000" stroke-width="1.000000px" />
			<path fill="none" d=" M240,290 L240,325" stroke="#000000" stroke-width="1.000000px" />
		</g>
		<g>
			<polygon points="40,130,38.75,125,41.25,125," stroke="#000000" stroke-width="1.000000px" />
			<path fill="none" d=" M40,90 L40,125" stroke="#000000" stroke-width="1.000000px" />
		</g>
		<g />
		<g>
			<polygon points="40,80,38.75,75,41.25,75," stroke="#000000" stroke-width="1.000000px" />
			<path fill="none" d=" M40,40 L40,75" stroke="#000000" stroke-width="1.000000px" />
		</g>
		<g>
			<polygon points="390,330,388.75,325,391.25,325," stroke="#000000" stroke-width="1.000000px" />
			<path fill="none" d=" M390,290 L390,325" stroke="#000000" stroke-width="1.000000px" />
		</g>
		<g>
			<polygon points="335,80,333.75,75,336.25,75," stroke="#000000" stroke-width="1.000000px" />
			<path fill="none" d=" M335,40 L335,75" stroke="#000000" stroke-width="1.000000px" />
		</g>
		<g>
			<polygon points="385,80,383.75,75,386.25,75," stroke="#000000" stroke-width="1.000000px" />
			<path fill="none" d=" M385,40 L385,75" stroke="#000000" stroke-width="1.000000px" />
		</g>
		<g>
			<polygon points="235,130,233.75,125,236.25,125," stroke="#000000" stroke-width="1.000000px" />
			<path fill="none" d=" M235,90 L235,125" stroke="#000000" stroke-width="1.000000px" />
		</g>
		<g>
			<polygon points="290,330,288.75,325,291.25,325," stroke="#000000" stroke-width="1.000000px" />
			<path fill="none" d=" M290,290 L290,325" stroke="#000000" stroke-width="1.000000px" />
		</g>
		<g>
			<polygon points="90,230,88.75,225,91.25,225," stroke="#000000" stroke-width="1.000000px" />
			<path fill="none" d=" M90,190 L90,225" stroke="#000000" stroke-width="1.000000px" />
		</g>
		<g>
			<polygon points="108,130,104.808,125.953,107.088,124.927," stroke="#000000" stroke-width="1.000000px" />
			<path fill="none" d=" M90,90 L108,130" stroke="#000000" stroke-width="1.000000px" />
		</g>
		<g>
			<polygon points="190,230,188.75,225,191.25,225," stroke="#000000" stroke-width="1.000000px" />
			<path fill="none" d=" M190,190 L190,225" stroke="#000000" stroke-width="1.000000px" />
		</g>
		<g>
			<polygon points="90,430,88.75,425,91.25,425," stroke="#000000" stroke-width="1.000000px" />
			<path fill="none" d=" M90,390 L90,425" stroke="#000000" stroke-width="1.000000px" />
		</g>
		<g>
			<polygon points="90,80,88.75,75,91.25,75," stroke="#000000" stroke-width="1.000000px" />
			<path fill="none" d=" M90,40 L90,75" stroke="#000000" stroke-width="1.000000px" />
		</g>
		<g>
			<polygon points="340,330,338.75,325,341.25,325," stroke="#000000" stroke-width="1.000000px" />
			<path fill="none" d=" M340,290 L340,325" stroke="#000000" stroke-width="1.000000px" />
		</g>
	</g>
	<g>
		<rect x="30" y="180" width="20" height="20" fill="#FFFFFF" stroke-width="1.000000px" stroke="#000000" />
		<text x="40" y="190" text-anchor="middle" dominant-baseline="middle" font-family="Arial" font-size="10" fill="#000000">659</text>
	</g>
	<g>
		<rect x="80" y="180" width="20" height="20" fill="#FFFFFF" stroke-width="1.000000px" stroke="#000000" />
		<text x="90" y="190" text-anchor="middle" dominant-baseline="middle" font-family="Arial" font-size="10" fill="#000000">2189</text>
	</g>
	<g>
		<rect x="80" y="230" width="20" height="20" fill="#FFFFFF" stroke-width="1.000000px" stroke="#000000" />
		<text x="90" y="240" text-anchor="middle" dominant-baseline="middle" font-family="Arial" font-size="10" fill="#000000">2175</text>
	</g>
	<g>
		<rect x="130" y="230" width="20" height="20" fill="#FFFFFF" stroke-width="1.000000px" stroke="#000000" />
		<text x="140" y="240" text-anchor="middle" dominant-baseline="middle" font-family="Arial" font-size="10" fill="#000000">3932</text>
	</g>
	<g>
		<rect x="180" y="230" width="20" height="20" fill="#FFFFFF" stroke-width="1.000000px" stroke="#000000" />
		<text x="190" y="240" text-anchor="middle" dominant-baseline="middle" font-family="Arial" font-size="10" fill="#000000">7416</text>
	</g>
	<g>
		<rect x="230" y="180" width="20" height="20" fill="#FFFFFF" stroke-width="1.000000px" stroke="#000000" />
		<text x="240" y="190" text-anchor="middle" dominant-baseline="middle" font-family="Arial" font-size="10" fill="#000000">10459</text>
	</g>
	<g>
		<rect x="275" y="30" width="20" height="20" fill="#FFFFFF" stroke-width="1.000000px" stroke="#000000" />
		<text x="285" y="40" text-anchor="middle" dominant-baseline="middle" font-family="Arial" font-size="10" fill="#000000">85236</text>
	</g>
	<g>
		<rect x="280" y="230" width="20" height="20" fill="#FFFFFF" stroke-width="1.000000px" stroke="#000000" />
		<text x="290" y="240" text-anchor="middle" dominant-baseline="middle" font-family="Arial" font-size="10" fill="#000000">1616</text>
	</g>
	<g>
		<rect x="180" y="380" width="20" height="20" fill="#FFFFFF" stroke-width="1.000000px" stroke="#000000" />
		<text x="190" y="390" text-anchor="middle" dominant-baseline="middle" font-family="Arial" font-size="10" fill="#000000">7046</text>
	</g>
	<g>
		<rect x="325" y="30" width="20" height="20" fill="#FFFFFF" stroke-width="1.000000px" stroke="#000000" />
		<text x="335" y="40" text-anchor="middle" dominant-baseline="middle" font-family="Arial" font-size="10" fill="#000000">5079</text>
	</g>
	<g>
		<rect x="30" y="280" width="20" height="20" fill="#FFFFFF" stroke-width="1.000000px" stroke="#000000" />
		<text x="40" y="290" text-anchor="middle" dominant-baseline="middle" font-family="Arial" font-size="10" fill="#000000">928</text>
	</g>
	<g>
		<rect x="30" y="130" width="20" height="20" fill="#FFFFFF" stroke-width="1.000000px" stroke="#000000" />
		<text x="40" y="140" text-anchor="middle" dominant-baseline="middle" font-family="Arial" font-size="10" fill="#000000">999</text>
	</g>
	<g>
		<rect x="80" y="330" width="20" height="20" fill="#FFFFFF" stroke-width="1.000000px" stroke="#000000" />
		<text x="90" y="340" text-anchor="middle" dominant-baseline="middle" font-family="Arial" font-size="10" fill="#000000">7409</text>
	</g>
	<g>
		<rect x="30" y="330" width="20" height="20" fill="#FFFFFF" stroke-width="1.000000px" stroke="#000000" />
		<text x="40" y="340" text-anchor="middle" dominant-baseline="middle" font-family="Arial" font-size="10" fill="#000000">3675</text>
	</g>
	<g>
		<rect x="275" y="80" width="20" height="20" fill="#FFFFFF" stroke-width="1.000000px" stroke="#000000" />
		<text x="285" y="90" text-anchor="middle" dominant-baseline="middle" font-family="Arial" font-size="10" fill="#000000">7290</text>
	</g>
	<g>
		<rect x="130" y="280" width="20" height="20" fill="#FFFFFF" stroke-width="1.000000px" stroke="#000000" />
		<text x="140" y="290" text-anchor="middle" dominant-baseline="middle" font-family="Arial" font-size="10" fill="#000000">821</text>
	</g>
	<g>
		<rect x="180" y="280" width="20" height="20" fill="#FFFFFF" stroke-width="1.000000px" stroke="#000000" />
		<text x="190" y="290" text-anchor="middle" dominant-baseline="middle" font-family="Arial" font-size="10" fill="#000000">5296</text>
	</g>
	<g>
		<rect x="230" y="280" width="20" height="20" fill="#FFFFFF" stroke-width="1.000000px" stroke="#000000" />
		<text x="240" y="290" text-anchor="middle" dominant-baseline="middle" font-family="Arial" font-size="10" fill="#000000">6874</text>
	</g>
	<g>
		<rect x="325" y="80" width="20" height="20" fill="#FFFFFF" stroke-width="1.000000px" stroke="#000000" />
		<text x="335" y="90" text-anchor="middle" dominant-baseline="middle" font-family="Arial" font-size="10" fill="#000000">5925</text>
	</g>
	<g>
		<rect x="80" y="80" width="20" height="20" fill="#FFFFFF" stroke-width="1.000000px" stroke="#000000" />
		<text x="90" y="90" text-anchor="middle" dominant-baseline="middle" font-family="Arial" font-size="10" fill="#000000">1387</text>
	</g>
	<g>
		<rect x="230" y="330" width="20" height="20" fill="#FFFFFF" stroke-width="1.000000px" stroke="#000000" />
		<text x="240" y="340" text-anchor="middle" dominant-baseline="middle" font-family="Arial" font-size="10" fill="#000000">6883</text>
	</g>
	<g>
		<rect x="30" y="230" width="20" height="20" fill="#FFFFFF" stroke-width="1.000000px" stroke="#000000" />
		<text x="40" y="240" text-anchor="middle" dominant-baseline="middle" font-family="Arial" font-size="10" fill="#000000">657</text>
	</g>
	<g>
		<rect x="280" y="280" width="20" height="20" fill="#FFFFFF" stroke-width="1.000000px" stroke="#000000" />
		<text x="290" y="290" text-anchor="middle" dominant-baseline="middle" font-family="Arial" font-size="10" fill="#000000">695</text>
	</g>
	<g>
		<rect x="230" y="380" width="20" height="20" fill="#FFFFFF" stroke-width="1.000000px" stroke="#000000" />
		<text x="240" y="390" text-anchor="middle" dominant-baseline="middle" font-family="Arial" font-size="10" fill="#000000">1439</text>
	</g>
	<g>
		<rect x="330" y="330" width="20" height="20" fill="#FFFFFF" stroke-width="1.000000px" stroke="#000000" />
		<text x="340" y="340" text-anchor="middle" dominant-baseline="middle" font-family="Arial" font-size="10" fill="#000000">2972</text>
	</g>
	<g>
		<rect x="375" y="80" width="20" height="20" fill="#FFFFFF" stroke-width="1.000000px" stroke="#000000" />
		<text x="385" y="90" text-anchor="middle" dominant-baseline="middle" font-family="Arial" font-size="10" fill="#000000">6921</text>
	</g>
	<g>
		<rect x="175" y="130" width="20" height="20" fill="#FFFFFF" stroke-width="1.000000px" stroke="#000000" />
		<text x="185" y="140" text-anchor="middle" dominant-baseline="middle" font-family="Arial" font-size="10" fill="#000000">23493</text>
	</g>
	<g>
		<rect x="102.5" y="130" width="20" height="20" fill="#FFFFFF" stroke-width="1.000000px" stroke="#000000" />
		<text x="112.5" y="140" text-anchor="middle" dominant-baseline="middle" font-family="Arial" font-size="10" fill="#000000">7157</text>
	</g>
	<g>
		<rect x="130" y="330" width="20" height="20" fill="#FFFFFF" stroke-width="1.000000px" stroke="#000000" />
		<text x="140" y="340" text-anchor="middle" dominant-baseline="middle" font-family="Arial" font-size="10" fill="#000000">3973</text>
	</g>
	<g>
		<rect x="375" y="180" width="20" height="20" fill="#FFFFFF" stroke-width="1.000000px" stroke="#000000" />
		<text x="385" y="190" text-anchor="middle" dominant-baseline="middle" font-family="Arial" font-size="10" fill="#000000">2063</text>
	</g>
	<g>
		<rect x="330" y="280" width="20" height="20" fill="#FFFFFF" stroke-width="1.000000px" stroke="#000000" />
		<text x="340" y="290" text-anchor="middle" dominant-baseline="middle" font-family="Arial" font-size="10" fill="#000000">5934</text>
	</g>
	<g>
		<rect x="175" y="30" width="20" height="20" fill="#FFFFFF" stroke-width="1.000000px" stroke="#000000" />
		<text x="185" y="40" text-anchor="middle" dominant-baseline="middle" font-family="Arial" font-size="10" fill="#000000">2034</text>
	</g>
	<g>
		<rect x="380" y="280" width="20" height="20" fill="#FFFFFF" stroke-width="1.000000px" stroke="#000000" />
		<text x="390" y="290" text-anchor="middle" dominant-baseline="middle" font-family="Arial" font-size="10" fill="#000000">9759</text>
	</g>
	<g>
		<rect x="125" y="80" width="20" height="20" fill="#FFFFFF" stroke-width="1.000000px" stroke="#000000" />
		<text x="135" y="90" text-anchor="middle" dominant-baseline="middle" font-family="Arial" font-size="10" fill="#000000">2033</text>
	</g>
	<g>
		<rect x="30" y="80" width="20" height="20" fill="#FFFFFF" stroke-width="1.000000px" stroke="#000000" />
		<text x="40" y="90" text-anchor="middle" dominant-baseline="middle" font-family="Arial" font-size="10" fill="#000000">1499</text>
	</g>
	<g>
		<rect x="130" y="180" width="20" height="20" fill="#FFFFFF" stroke-width="1.000000px" stroke="#000000" />
		<text x="140" y="190" text-anchor="middle" dominant-baseline="middle" font-family="Arial" font-size="10" fill="#000000">952</text>
	</g>
	<g>
		<rect x="375" y="30" width="20" height="20" fill="#FFFFFF" stroke-width="1.000000px" stroke="#000000" />
		<text x="385" y="40" text-anchor="middle" dominant-baseline="middle" font-family="Arial" font-size="10" fill="#000000">7428</text>
	</g>
	<g>
		<rect x="225" y="130" width="20" height="20" fill="#FFFFFF" stroke-width="1.000000px" stroke="#000000" />
		<text x="235" y="140" text-anchor="middle" dominant-baseline="middle" font-family="Arial" font-size="10" fill="#000000">3454</text>
	</g>
	<g>
		<rect x="302.5" y="180" width="20" height="20" fill="#FFFFFF" stroke-width="1.000000px" stroke="#000000" />
		<text x="312.5" y="190" text-anchor="middle" dominant-baseline="middle" font-family="Arial" font-size="10" fill="#000000">2113</text>
	</g>
	<g>
		<rect x="180" y="180" width="20" height="20" fill="#FFFFFF" stroke-width="1.000000px" stroke="#000000" />
		<text x="190" y="190" text-anchor="middle" dominant-baseline="middle" font-family="Arial" font-size="10" fill="#000000">581</text>
	</g>
	<g>
		<rect x="225" y="80" width="20" height="20" fill="#FFFFFF" stroke-width="1.000000px" stroke="#000000" />
		<text x="235" y="90" text-anchor="middle" dominant-baseline="middle" font-family="Arial" font-size="10" fill="#000000">7297</text>
	</g>
	<g>
		<rect x="380" y="330" width="20" height="20" fill="#FFFFFF" stroke-width="1.000000px" stroke="#000000" />
		<text x="390" y="340" text-anchor="middle" dominant-baseline="middle" font-family="Arial" font-size="10" fill="#000000">8841</text>
	</g>
	<g>
		<rect x="425" y="80" width="20" height="20" fill="#FFFFFF" stroke-width="1.000000px" stroke="#000000" />
		<text x="435" y="90" text-anchor="middle" dominant-baseline="middle" font-family="Arial" font-size="10" fill="#000000">6833</text>
	</g>
	<g>
		<rect x="80" y="30" width="20" height="20" fill="#FFFFFF" stroke-width="1.000000px" stroke="#000000" />
		<text x="90" y="40" text-anchor="middle" dominant-baseline="middle" font-family="Arial" font-size="10" fill="#000000">7161</text>
	</g>
	<g>
		<rect x="425" y="230" width="20" height="20" fill="#FFFFFF" stroke-width="1.000000px" stroke="#000000" />
		<text x="435" y="240" text-anchor="middle" dominant-baseline="middle" font-family="Arial" font-size="10" fill="#000000">3929</text>
	</g>
	<g>
		<rect x="425" y="180" width="20" height="20" fill="#FFFFFF" stroke-width="1.000000px" stroke="#000000" />
		<text x="435" y="190" text-anchor="middle" dominant-baseline="middle" font-family="Arial" font-size="10" fill="#000000">3078</text>
	</g>
	<g>
		<rect x="80" y="280" width="20" height="20" fill="#FFFFFF" stroke-width="1.000000px" stroke="#000000" />
		<text x="90" y="290" text-anchor="middle" dominant-baseline="middle" font-family="Arial" font-size="10" fill="#000000">396</text>
	</g>
	<g>
		<rect x="375" y="230" width="20" height="20" fill="#FFFFFF" stroke-width="1.000000px" stroke="#000000" />
		<text x="385" y="240" text-anchor="middle" dominant-baseline="middle" font-family="Arial" font-size="10" fill="#000000">2908</text>
	</g>
	<g>
		<rect x="30" y="380" width="20" height="20" fill="#FFFFFF" stroke-width="1.000000px" stroke="#000000" />
		<text x="40" y="390" text-anchor="middle" dominant-baseline="middle" font-family="Arial" font-size="10" fill="#000000">9111</text>
	</g>
	<g>
		<rect x="325" y="230" width="20" height="20" fill="#FFFFFF" stroke-width="1.000000px" stroke="#000000" />
		<text x="335" y="240" text-anchor="middle" dominant-baseline="middle" font-family="Arial" font-size="10" fill="#000000">113523636</text>
	</g>
	<g>
		<rect x="80" y="430" width="20" height="20" fill="#FFFFFF" stroke-width="1.000000px" stroke="#000000" />
		<text x="90" y="440" text-anchor="middle" dominant-baseline="middle" font-family="Arial" font-size="10" fill="#000000">6418</text>
	</g>
	<g>
		<rect x="30" y="30" width="20" height="20" fill="#FFFFFF" stroke-width="1.000000px" stroke="#000000" />
		<text x="40" y="40" text-anchor="middle" dominant-baseline="middle" font-family="Arial" font-size="10" fill="#000000">5664</text>
	</g>
	<g>
		<rect x="130" y="430" width="20" height="20" fill="#FFFFFF" stroke-width="1.000000px" stroke="#000000" />
		<text x="140" y="440" text-anchor="middle" dominant-baseline="middle" font-family="Arial" font-size="10" fill="#000000">4176</text>
	</g>
	<g>
		<rect x="180" y="330" width="20" height="20" fill="#FFFFFF" stroke-width="1.000000px" stroke="#000000" />
		<text x="190" y="340" text-anchor="middle" dominant-baseline="middle" font-family="Arial" font-size="10" fill="#000000">558</text>
	</g>
	<g>
		<rect x="30" y="430" width="20" height="20" fill="#FFFFFF" stroke-width="1.000000px" stroke="#000000" />
		<text x="40" y="440" text-anchor="middle" dominant-baseline="middle" font-family="Arial" font-size="10" fill="#000000">4613</text>
	</g>
	<g>
		<rect x="80" y="380" width="20" height="20" fill="#FFFFFF" stroke-width="1.000000px" stroke="#000000" />
		<text x="90" y="390" text-anchor="middle" dominant-baseline="middle" font-family="Arial" font-size="10" fill="#000000">4297</text>
	</g>
	<g>
		<rect x="175" y="80" width="20" height="20" fill="#FFFFFF" stroke-width="1.000000px" stroke="#000000" />
		<text x="185" y="90" text-anchor="middle" dominant-baseline="middle" font-family="Arial" font-size="10" fill="#000000">405</text>
	</g>
	<g>
		<rect x="280" y="330" width="20" height="20" fill="#FFFFFF" stroke-width="1.000000px" stroke="#000000" />
		<text x="290" y="340" text-anchor="middle" dominant-baseline="middle" font-family="Arial" font-size="10" fill="#000000">5587</text>
	</g>
	<g>
		<rect x="225" y="30" width="20" height="20" fill="#FFFFFF" stroke-width="1.000000px" stroke="#000000" />
		<text x="235" y="40" text-anchor="middle" dominant-baseline="middle" font-family="Arial" font-size="10" fill="#000000">5329</text>
	</g>
	<g>
		<rect x="425" y="30" width="20" height="20" fill="#FFFFFF" stroke-width="1.000000px" stroke="#000000" />
		<text x="435" y="40" text-anchor="middle" dominant-baseline="middle" font-family="Arial" font-size="10" fill="#000000">3767</text>
	</g>
	<g>
		<rect x="130" y="380" width="20" height="20" fill="#FFFFFF" stroke-width="1.000000px" stroke="#000000" />
		<text x="140" y="390" text-anchor="middle" dominant-baseline="middle" font-family="Arial" font-size="10" fill="#000000">2274</text>
	</g>
	<g>
		<rect x="230" y="230" width="20" height="20" fill="#FFFFFF" stroke-width="1.000000px" stroke="#000000" />
		<text x="240" y="240" text-anchor="middle" dominant-baseline="middle" font-family="Arial" font-size="10" fill="#000000">4085</text>
	</g>
</svg>
