<?xml version="1.0"?>
<svg xmlns="http://www.w3.org/2000/svg" xmlns:xlink="http://www.w3.org/1999/xlink" xmlns:ev="http://www.w3.org/2001/xml-events" version="1.1" baseProfile="full" viewBox="13.5 13.5 486 478">
	<g>
		<g>
			<polygon points="66.5,50.5,68.091,47.8483,69.1517,48.909," stroke="#000000" />
			<path fill="none" d=" M81,36 L66.5,50.5" stroke="#000000" />
		</g>
		<g>
			<polygon points="109.5,78.119,112.532,77.5126,112.461,79.0109," stroke="#000000" />
			<path fill="none" d=" M128,79 L109.5,78.119" stroke="#000000" />
		</g>
		<g>
			<polygon points="322.5,299.643,319.424,299.961,319.636,298.476," stroke="#000000" />
			<path fill="none" d=" M304,297 L322.5,299.643" stroke="#000000" />
		</g>
		<g>
			<polygon points="36.5,343.659,33.4262,343.997,33.6288,342.511," stroke="#000000" />
			<path fill="none" d=" M17,341 L36.5,343.659" stroke="#000000" />
		</g>
		<g>
			<polygon points="243.217,56.5,244.224,59.4237,242.73,59.5537," stroke="#000000" />
			<path fill="none" d=" M245,77 L243.217,56.5" stroke="#000000" />
		</g>
		<g>
			<polygon points="476.5,488,479.5,487.25,479.5,488.75," stroke="#000000" />
			<path fill="none" d=" M496,488 L476.5,488" stroke="#000000" />
		</g>
		<g>
			<polygon points="202.5,241.895,204.312,239.389,205.278,240.536," stroke="#000000" />
			<path fill="none" d=" M219,228 L202.5,241.895" stroke="#000000" />
		</g>
		<g>
			<polygon points="387,247.5,386.25,244.5,387.75,244.5," stroke="#000000" />
			<path fill="none" d=" M387,228 L387,244.5" stroke="#000000" />
		</g>
		<g>
			<polygon points="34.5,137.875,31.4565,137.328,32.072,135.96," stroke="#000000" />
			<path fill="none" d=" M17,130 L34.5,137.875" stroke="#000000" />
		</g>
		<g>
			<polygon points="266.5,293.682,263.803,295.195,263.408,293.748," stroke="#000000" />
			<path fill="none" d=" M247,299 L266.5,293.682" stroke="#000000" />
		</g>
		<g>
			<polygon points="147.5,147.794,149.253,145.247,150.246,146.372," stroke="#000000" />
			<path fill="none" d=" M162,135 L147.5,147.794" stroke="#000000" />
		</g>
		<g>
			<polygon points="150.5,418,147.5,418.75,147.5,417.25," stroke="#000000" />
			<path fill="none" d=" M131,418 L150.5,418" stroke="#000000" />
		</g>
		<g>
			<polygon points="199.5,158.109,202.53,157.49,202.465,158.988," stroke="#000000" />
			<path fill="none" d=" M220,159 L199.5,158.109" stroke="#000000" />
		</g>
		<g>
			<polygon points="19.5,380.357,22.5759,380.039,22.3638,381.524," stroke="#000000" />
			<path fill="none" d=" M38,383 L19.5,380.357" stroke="#000000" />
		</g>
		<g>
			<polygon points="61.5,301.595,64.5921,301.56,64.2447,303.02," stroke="#000000" />
			<path fill="none" d=" M80,306 L61.5,301.595" stroke="#000000" />
		</g>
		<g>
			<polygon points="196.333,40.5,195.293,43.4122,194.045,42.5801," stroke="#000000" />
			<path fill="none" d=" M186,56 L196.333,40.5" stroke="#000000" />
		</g>
		<g>
			<polygon points="62.5,344.783,65.4237,343.776,65.5537,345.27," stroke="#000000" />
			<path fill="none" d=" M83,343 L62.5,344.783" stroke="#000000" />
		</g>
		<g>
			<polygon points="228.611,174.5,226.499,172.242,227.81,171.513," stroke="#000000" />
			<path fill="none" d=" M220,159 L228.611,174.5" stroke="#000000" />
		</g>
		<g>
			<polygon points="136.5,343.643,133.424,343.961,133.636,342.476," stroke="#000000" />
			<path fill="none" d=" M118,341 L136.5,343.643" stroke="#000000" />
		</g>
		<g>
			<polygon points="378.5,343.783,381.424,342.776,381.554,344.27," stroke="#000000" />
			<path fill="none" d=" M399,342 L378.5,343.783" stroke="#000000" />
		</g>
		<g />
		<g>
			<polygon points="199.5,341.357,202.576,341.039,202.364,342.524," stroke="#000000" />
			<path fill="none" d=" M218,344 L199.5,341.357" stroke="#000000" />
		</g>
		<g>
			<polygon points="197.5,243.643,194.424,243.961,194.636,242.476," stroke="#000000" />
			<path fill="none" d=" M179,241 L197.5,243.643" stroke="#000000" />
		</g>
		<g>
			<polygon points="229.553,142.5,228.699,145.472,227.4,144.721," stroke="#000000" />
			<path fill="none" d=" M220,159 L229.553,142.5" stroke="#000000" />
		</g>
		<g />
		<g>
			<polygon points="19.5,291.75,22.589,291.894,22.158,293.33," stroke="#000000" />
			<path fill="none" d=" M37,297 L19.5,291.75" stroke="#000000" />
		</g>
		<g>
			<polygon points="332.5,240.773,335.42,239.754,335.556,241.248," stroke="#000000" />
			<path fill="none" d=" M352,239 L332.5,240.773" stroke="#000000" />
		</g>
		<g>
			<polygon points="402.5,298,399.5,298.75,399.5,297.25," stroke="#000000" />
			<path fill="none" d=" M383,298 L402.5,298" stroke="#000000" />
		</g>
		<g>
			<polygon points="299.5,343.886,302.463,343.001,302.531,344.499," stroke="#000000" />
			<path fill="none" d=" M319,343 L299.5,343.886" stroke="#000000" />
		</g>
		<g>
			<polygon points="56.5,145.205,53.4138,145.01,53.8686,143.58," stroke="#000000" />
			<path fill="none" d=" M37,139 L56.5,145.205" stroke="#000000" />
		</g>
		<g>
			<polygon points="373.5,343.886,370.469,344.499,370.537,343.001," stroke="#000000" />
			<path fill="none" d=" M354,343 L373.5,343.886" stroke="#000000" />
		</g>
		<g>
			<polygon points="129.316,165.5,131.377,167.805,130.049,168.504," stroke="#000000" />
			<path fill="none" d=" M138,182 L129.316,165.5" stroke="#000000" />
		</g>
		<g>
			<polygon points="61.6667,50.5,59.0714,48.8186,60.168,47.7951," stroke="#000000" />
			<path fill="none" d=" M50,38 L61.6667,50.5" stroke="#000000" />
		</g>
		<g>
			<polygon points="278.5,381.119,281.532,380.513,281.461,382.011," stroke="#000000" />
			<path fill="none" d=" M297,382 L278.5,381.119" stroke="#000000" />
		</g>
		<g>
			<polygon points="120.5,382,123.5,381.25,123.5,382.75," stroke="#000000" />
			<path fill="none" d=" M140,382 L120.5,382" stroke="#000000" />
		</g>
		<g>
			<polygon points="203.5,237.083,206.285,238.428,205.325,239.58," stroke="#000000" />
			<path fill="none" d=" M219,250 L203.5,237.083" stroke="#000000" />
		</g>
		<g>
			<polygon points="73.875,184.5,71.96,182.072,73.3278,181.456," stroke="#000000" />
			<path fill="none" d=" M66,167 L73.875,184.5" stroke="#000000" />
		</g>
		<g>
			<polygon points="451,167.5,450.25,164.5,451.75,164.5," stroke="#000000" />
			<path fill="none" d=" M451,148 L451,164.5" stroke="#000000" />
		</g>
		<g />
		<g>
			<polygon points="34.5,34.5556,37.5913,34.4742,37.2659,35.9385," stroke="#000000" />
			<path fill="none" d=" M50,38 L34.5,34.5556" stroke="#000000" />
		</g>
		<g>
			<polygon points="378.5,453,375.5,453.75,375.5,452.25," stroke="#000000" />
			<path fill="none" d=" M359,453 L378.5,453" stroke="#000000" />
		</g>
		<g>
			<polygon points="32.8696,36.5,34.5635,39.0871,33.1468,39.5799," stroke="#000000" />
			<path fill="none" d=" M40,57 L32.8696,36.5" stroke="#000000" />
		</g>
		<g>
			<polygon points="200.5,301.405,197.408,301.44,197.755,299.98," stroke="#000000" />
			<path fill="none" d=" M182,297 L200.5,301.405" stroke="#000000" />
		</g>
		<g>
			<polygon points="422.886,247.5,422.001,244.537,423.499,244.469," stroke="#000000" />
			<path fill="none" d=" M422,228 L422.886,247.5" stroke="#000000" />
		</g>
		<g />
		<g>
			<polygon points="262.579,232.5,264.815,234.636,263.547,235.437," stroke="#000000" />
			<path fill="none" d=" M273,249 L262.579,232.5" stroke="#000000" />
		</g>
		<g>
			<polygon points="327.5,299.891,330.465,299.012,330.53,300.51," stroke="#000000" />
			<path fill="none" d=" M348,299 L327.5,299.891" stroke="#000000" />
		</g>
		<g>
			<polygon points="244.528,51.5,245.452,48.5491,246.732,49.3312," stroke="#000000" />
			<path fill="none" d=" M254,36 L244.528,51.5" stroke="#000000" />
		</g>
		<g>
			<polygon points="19.5,223.667,22.4122,224.707,21.5801,225.955," stroke="#000000" />
			<path fill="none" d=" M35,234 L19.5,223.667" stroke="#000000" />
		</g>
		<g>
			<polygon points="159.5,380.227,156.58,381.246,156.444,379.752," stroke="#000000" />
			<path fill="none" d=" M140,382 L159.5,380.227" stroke="#000000" />
		</g>
		<g>
			<polygon points="251.5,35.881,248.468,36.4874,248.539,34.9891," stroke="#000000" />
			<path fill="none" d=" M233,35 L251.5,35.881" stroke="#000000" />
		</g>
		<g>
			<polygon points="241.684,51.5,239.623,49.1946,240.951,48.4959," stroke="#000000" />
			<path fill="none" d=" M233,35 L241.684,51.5" stroke="#000000" />
		</g>
		<g />
		<g>
			<polygon points="98.5,381.114,101.531,380.501,101.463,381.999," stroke="#000000" />
			<path fill="none" d=" M118,382 L98.5,381.114" stroke="#000000" />
		</g>
		<g>
			<polygon points="190.5,453,193.5,452.25,193.5,453.75," stroke="#000000" />
			<path fill="none" d=" M210,453 L190.5,453" stroke="#000000" />
		</g>
		<g>
			<polygon points="205.5,302.109,208.53,301.49,208.465,302.988," stroke="#000000" />
			<path fill="none" d=" M226,303 L205.5,302.109" stroke="#000000" />
		</g>
		<g>
			<polygon points="39.5,297.455,42.5858,297.253,42.3174,298.729," stroke="#000000" />
			<path fill="none" d=" M59,301 L39.5,297.455" stroke="#000000" />
		</g>
		<g>
			<polygon points="436.5,343,439.5,342.25,439.5,343.75," stroke="#000000" />
			<path fill="none" d=" M456,343 L436.5,343" stroke="#000000" />
		</g>
		<g>
			<polygon points="268.5,160.158,270.47,157.775,271.36,158.982," stroke="#000000" />
			<path fill="none" d=" M285,148 L268.5,160.158" stroke="#000000" />
		</g>
		<g>
			<polygon points="104.5,303.688,107.384,302.571,107.57,304.06," stroke="#000000" />
			<path fill="none" d=" M126,301 L104.5,303.688" stroke="#000000" />
		</g>
		<g>
			<polygon points="252.472,38.5,251.548,41.4509,250.268,40.6688," stroke="#000000" />
			<path fill="none" d=" M243,54 L252.472,38.5" stroke="#000000" />
		</g>
		<g>
			<polygon points="131.5,250.432,128.408,250.498,128.741,249.036," stroke="#000000" />
			<path fill="none" d=" M112,246 L131.5,250.432" stroke="#000000" />
		</g>
		<g>
			<polygon points="264.5,488,261.5,488.75,261.5,487.25," stroke="#000000" />
			<path fill="none" d=" M245,488 L264.5,488" stroke="#000000" />
		</g>
		<g />
		<g />
		<g>
			<polygon points="150.5,453,147.5,453.75,147.5,452.25," stroke="#000000" />
			<path fill="none" d=" M131,453 L150.5,453" stroke="#000000" />
		</g>
		<g>
			<polygon points="88.5,67.4286,91.4768,68.2658,90.7326,69.5682," stroke="#000000" />
			<path fill="none" d=" M107,78 L88.5,67.4286" stroke="#000000" />
		</g>
		<g>
			<polygon points="207.5,418,204.5,418.75,204.5,417.25," stroke="#000000" />
			<path fill="none" d=" M188,418 L207.5,418" stroke="#000000" />
		</g>
		<g>
			<polygon points="378.5,381.891,381.465,381.012,381.53,382.51," stroke="#000000" />
			<path fill="none" d=" M399,381 L378.5,381.891" stroke="#000000" />
		</g>
		<g>
			<polygon points="66.5,54.4773,69.4643,55.3578,68.7012,56.6492," stroke="#000000" />
			<path fill="none" d=" M86,66 L66.5,54.4773" stroke="#000000" />
		</g>
		<g>
			<polygon points="181.5,240.318,184.197,238.805,184.592,240.252," stroke="#000000" />
			<path fill="none" d=" M201,235 L181.5,240.318" stroke="#000000" />
		</g>
		<g>
			<polygon points="284.289,166.5,281.976,164.448,283.214,163.601," stroke="#000000" />
			<path fill="none" d=" M273,150 L284.289,166.5" stroke="#000000" />
		</g>
		<g>
			<polygon points="133.5,488,136.5,487.25,136.5,488.75," stroke="#000000" />
			<path fill="none" d=" M153,488 L133.5,488" stroke="#000000" />
		</g>
		<g>
			<polygon points="453.5,381.114,450.537,381.999,450.469,380.501," stroke="#000000" />
			<path fill="none" d=" M434,382 L453.5,381.114" stroke="#000000" />
		</g>
		<g />
		<g>
			<polygon points="422.114,230.5,422.999,233.463,421.501,233.531," stroke="#000000" />
			<path fill="none" d=" M423,250 L422.114,230.5" stroke="#000000" />
		</g>
		<g>
			<polygon points="90.5526,19.5,89.6986,22.4721,88.4005,21.7205," stroke="#000000" />
			<path fill="none" d=" M81,36 L90.5526,19.5" stroke="#000000" />
		</g>
		<g>
			<polygon points="36.7727,253.5,35.7542,250.58,37.248,250.444," stroke="#000000" />
			<path fill="none" d=" M35,234 L36.7727,253.5" stroke="#000000" />
		</g>
		<g>
			<polygon points="144.5,299.238,141.585,300.269,141.442,298.776," stroke="#000000" />
			<path fill="none" d=" M126,301 L144.5,299.238" stroke="#000000" />
		</g>
		<g>
			<polygon points="199.5,381.119,202.532,380.513,202.461,382.011," stroke="#000000" />
			<path fill="none" d=" M218,382 L199.5,381.119" stroke="#000000" />
		</g>
		<g>
			<polygon points="165.5,55.1087,168.53,54.4897,168.465,55.9883," stroke="#000000" />
			<path fill="none" d=" M186,56 L165.5,55.1087" stroke="#000000" />
		</g>
		<g>
			<polygon points="273,231.5,272.25,234.5,273.75,234.5," stroke="#000000" />
			<path fill="none" d=" M273,249 L273,234.5" stroke="#000000" />
		</g>
		<g>
			<polygon points="293.659,69.5,293.997,72.5738,292.511,72.3712," stroke="#000000" />
			<path fill="none" d=" M291,89 L293.659,69.5" stroke="#000000" />
		</g>
		<g />
		<g>
			<polygon points="198.5,235.682,195.803,237.195,195.408,235.748," stroke="#000000" />
			<path fill="none" d=" M179,241 L198.5,235.682" stroke="#000000" />
		</g>
		<g>
			<polygon points="125.5,161.056,122.671,159.806,123.592,158.622," stroke="#000000" />
			<path fill="none" d=" M110,149 L125.5,161.056" stroke="#000000" />
		</g>
		<g>
			<polygon points="47.5,38.5,44.7053,39.8238,44.4112,38.3529," stroke="#000000" />
			<path fill="none" d=" M30,42 L47.5,38.5" stroke="#000000" />
		</g>
		<g>
			<polygon points="285.881,166.5,284.989,163.539,286.487,163.468," stroke="#000000" />
			<path fill="none" d=" M285,148 L285.881,166.5" stroke="#000000" />
		</g>
		<g>
			<polygon points="133.5,453,136.5,452.25,136.5,453.75," stroke="#000000" />
			<path fill="none" d=" M153,453 L133.5,453" stroke="#000000" />
		</g>
		<g>
			<polygon points="40.5,382.674,43.3778,381.542,43.5718,383.03," stroke="#000000" />
			<path fill="none" d=" M61,380 L40.5,382.674" stroke="#000000" />
		</g>
		<g>
			<polygon points="247.5,453,250.5,452.25,250.5,453.75," stroke="#000000" />
			<path fill="none" d=" M267,453 L247.5,453" stroke="#000000" />
		</g>
		<g>
			<polygon points="159.5,343.109,156.535,343.988,156.47,342.49," stroke="#000000" />
			<path fill="none" d=" M139,344 L159.5,343.109" stroke="#000000" />
		</g>
		<g />
		<g>
			<polygon points="42.5,56.5833,45.3359,55.3503,45.5825,56.8299," stroke="#000000" />
			<path fill="none" d=" M64,53 L42.5,56.5833" stroke="#000000" />
		</g>
		<g>
			<polygon points="244.783,74.5,243.776,71.5763,245.27,71.4463," stroke="#000000" />
			<path fill="none" d=" M243,54 L244.783,74.5" stroke="#000000" />
		</g>
		<g>
			<polygon points="221.447,156.5,222.301,153.528,223.6,154.279," stroke="#000000" />
			<path fill="none" d=" M231,140 L221.447,156.5" stroke="#000000" />
		</g>
		<g>
			<polygon points="207.5,488,204.5,488.75,204.5,487.25," stroke="#000000" />
			<path fill="none" d=" M188,488 L207.5,488" stroke="#000000" />
		</g>
		<g>
			<polygon points="329.326,57.5,330.458,60.3778,328.97,60.5718," stroke="#000000" />
			<path fill="none" d=" M332,78 L329.326,57.5" stroke="#000000" />
		</g>
		<g>
			<polygon points="304.5,453,307.5,452.25,307.5,453.75," stroke="#000000" />
			<path fill="none" d=" M324,453 L304.5,453" stroke="#000000" />
		</g>
		<g>
			<polygon points="369.5,56,372.5,55.25,372.5,56.75," stroke="#000000" />
			<path fill="none" d=" M389,56 L369.5,56" stroke="#000000" />
		</g>
		<g>
			<polygon points="357.5,381.119,360.532,380.513,360.461,382.011," stroke="#000000" />
			<path fill="none" d=" M376,382 L357.5,381.119" stroke="#000000" />
		</g>
		<g>
			<polygon points="31.6667,44.5,33.9548,46.5801,32.7067,47.4122," stroke="#000000" />
			<path fill="none" d=" M40,57 L31.6667,44.5" stroke="#000000" />
		</g>
		<g>
			<polygon points="30.0882,31.5,27.6701,29.5725,28.8617,28.6613," stroke="#000000" />
			<path fill="none" d=" M19,17 L30.0882,31.5" stroke="#000000" />
		</g>
		<g>
			<polygon points="71.6562,132.5,70.1516,135.202,69.0573,134.176," stroke="#000000" />
			<path fill="none" d=" M59,146 L71.6562,132.5" stroke="#000000" />
		</g>
		<g>
			<polygon points="190.5,488,193.5,487.25,193.5,488.75," stroke="#000000" />
			<path fill="none" d=" M210,488 L190.5,488" stroke="#000000" />
		</g>
		<g>
			<polygon points="436.5,488,433.5,488.75,433.5,487.25," stroke="#000000" />
			<path fill="none" d=" M416,488 L436.5,488" stroke="#000000" />
		</g>
		<g>
			<polygon points="195.553,72.5,193.4,70.2795,194.699,69.5279," stroke="#000000" />
			<path fill="none" d=" M186,56 L195.553,72.5" stroke="#000000" />
		</g>
		<g>
			<polygon points="377.5,159,374.5,159.75,374.5,158.25," stroke="#000000" />
			<path fill="none" d=" M358,159 L377.5,159" stroke="#000000" />
		</g>
		<g>
			<polygon points="41.5,344.119,44.5323,343.513,44.4609,345.011," stroke="#000000" />
			<path fill="none" d=" M60,345 L41.5,344.119" stroke="#000000" />
		</g>
		<g>
			<polygon points="360.5,159,363.5,158.25,363.5,159.75," stroke="#000000" />
			<path fill="none" d=" M380,159 L360.5,159" stroke="#000000" />
		</g>
		<g>
			<polygon points="378.5,418,375.5,418.75,375.5,417.25," stroke="#000000" />
			<path fill="none" d=" M359,418 L378.5,418" stroke="#000000" />
		</g>
		<g>
			<polygon points="19.5,453,22.5,452.25,22.5,453.75," stroke="#000000" />
			<path fill="none" d=" M39,453 L19.5,453" stroke="#000000" />
		</g>
		<g>
			<polygon points="321.5,488,318.5,488.75,318.5,487.25," stroke="#000000" />
			<path fill="none" d=" M302,488 L321.5,488" stroke="#000000" />
		</g>
		<g />
		<g>
			<polygon points="238.5,381.109,235.535,381.988,235.47,380.49," stroke="#000000" />
			<path fill="none" d=" M218,382 L238.5,381.109" stroke="#000000" />
		</g>
		<g>
			<polygon points="220.5,343.891,223.465,343.012,223.53,344.51," stroke="#000000" />
			<path fill="none" d=" M241,343 L220.5,343.891" stroke="#000000" />
		</g>
		<g>
			<polygon points="387,230.5,386.25,233.5,387.75,233.5," stroke="#000000" />
			<path fill="none" d=" M387,250 L387,233.5" stroke="#000000" />
		</g>
		<g>
			<polygon points="424,47.5,423.25,50.5,424.75,50.5," stroke="#000000" />
			<path fill="none" d=" M424,67 L424,50.5" stroke="#000000" />
		</g>
		<g>
			<polygon points="247.5,418,250.5,417.25,250.5,418.75," stroke="#000000" />
			<path fill="none" d=" M267,418 L247.5,418" stroke="#000000" />
		</g>
		<g>
			<polygon points="274.711,152.5,277.024,154.552,275.786,155.399," stroke="#000000" />
			<path fill="none" d=" M286,169 L274.711,152.5" stroke="#000000" />
		</g>
		<g>
			<polygon points="125.5,164.944,123.592,167.378,122.671,166.194," stroke="#000000" />
			<path fill="none" d=" M110,177 L125.5,164.944" stroke="#000000" />
		</g>
		<g>
			<polygon points="291.326,46.5,292.458,49.3778,290.97,49.5718," stroke="#000000" />
			<path fill="none" d=" M294,67 L291.326,46.5" stroke="#000000" />
		</g>
		<g>
			<polygon points="32.5,41.5,35.2947,40.1762,35.5888,41.6471," stroke="#000000" />
			<path fill="none" d=" M50,38 L32.5,41.5" stroke="#000000" />
		</g>
		<g>
			<polygon points="38.8095,59.5,38.1969,62.531,36.8426,61.8861," stroke="#000000" />
			<path fill="none" d=" M30,78 L38.8095,59.5" stroke="#000000" />
		</g>
		<g>
			<polygon points="327.5,240.545,324.414,240.747,324.683,239.271," stroke="#000000" />
			<path fill="none" d=" M308,237 L327.5,240.545" stroke="#000000" />
		</g>
		<g>
			<polygon points="135.389,248.5,136.19,245.513,137.501,246.242," stroke="#000000" />
			<path fill="none" d=" M144,233 L135.389,248.5" stroke="#000000" />
		</g>
		<g>
			<polygon points="378.5,488,375.5,488.75,375.5,487.25," stroke="#000000" />
			<path fill="none" d=" M359,488 L378.5,488" stroke="#000000" />
		</g>
		<g>
			<polygon points="321.217,160.5,322.224,163.424,320.73,163.554," stroke="#000000" />
			<path fill="none" d=" M323,181 L321.217,160.5" stroke="#000000" />
		</g>
		<g>
			<polygon points="130.5,161.088,132.427,158.67,133.339,159.862," stroke="#000000" />
			<path fill="none" d=" M145,150 L130.5,161.088" stroke="#000000" />
		</g>
		<g>
			<polygon points="436.5,381.886,439.463,381.001,439.531,382.499," stroke="#000000" />
			<path fill="none" d=" M456,381 L436.5,381.886" stroke="#000000" />
		</g>
		<g>
			<polygon points="76.5,453,79.5,452.25,79.5,453.75," stroke="#000000" />
			<path fill="none" d=" M96,453 L76.5,453" stroke="#000000" />
		</g>
		<g>
			<polygon points="142.5,151.912,140.573,154.33,139.661,153.138," stroke="#000000" />
			<path fill="none" d=" M128,163 L142.5,151.912" stroke="#000000" />
		</g>
		<g>
			<polygon points="459.5,298,456.5,298.75,456.5,297.25," stroke="#000000" />
			<path fill="none" d=" M440,298 L459.5,298" stroke="#000000" />
		</g>
		<g>
			<polygon points="304.5,488,307.5,487.25,307.5,488.75," stroke="#000000" />
			<path fill="none" d=" M324,488 L304.5,488" stroke="#000000" />
		</g>
		<g>
			<polygon points="202.5,244.789,205.587,244.978,205.135,246.408," stroke="#000000" />
			<path fill="none" d=" M219,250 L202.5,244.789" stroke="#000000" />
		</g>
		<g>
			<polygon points="67.125,169.5,69.04,171.928,67.6722,172.544," stroke="#000000" />
			<path fill="none" d=" M75,187 L67.125,169.5" stroke="#000000" />
		</g>
		<g>
			<polygon points="294.5,343.643,291.424,343.961,291.636,342.476," stroke="#000000" />
			<path fill="none" d=" M276,341 L294.5,343.643" stroke="#000000" />
		</g>
		<g />
		<g>
			<polygon points="436.5,453,433.5,453.75,433.5,452.25," stroke="#000000" />
			<path fill="none" d=" M416,453 L436.5,453" stroke="#000000" />
		</g>
		<g>
			<polygon points="108.912,80.5,111.33,82.4275,110.138,83.3387," stroke="#000000" />
			<path fill="none" d=" M120,95 L108.912,80.5" stroke="#000000" />
		</g>
		<g>
			<polygon points="181.5,241.357,184.576,241.039,184.364,242.524," stroke="#000000" />
			<path fill="none" d=" M200,244 L181.5,241.357" stroke="#000000" />
		</g>
		<g>
			<polygon points="19.5,418,22.5,417.25,22.5,418.75," stroke="#000000" />
			<path fill="none" d=" M39,418 L19.5,418" stroke="#000000" />
		</g>
		<g>
			<polygon points="396.5,342.217,393.576,343.224,393.446,341.73," stroke="#000000" />
			<path fill="none" d=" M376,344 L396.5,342.217" stroke="#000000" />
		</g>
		<g>
			<polygon points="256.5,240.289,258.552,237.976,259.399,239.214," stroke="#000000" />
			<path fill="none" d=" M273,229 L256.5,240.289" stroke="#000000" />
		</g>
		<g>
			<polygon points="184.5,297.595,187.592,297.56,187.245,299.02," stroke="#000000" />
			<path fill="none" d=" M203,302 L184.5,297.595" stroke="#000000" />
		</g>
		<g>
			<polygon points="493.5,453,490.5,453.75,490.5,452.25," stroke="#000000" />
			<path fill="none" d=" M474,453 L493.5,453" stroke="#000000" />
		</g>
		<g>
			<polygon points="76.5,418,79.5,417.25,79.5,418.75," stroke="#000000" />
			<path fill="none" d=" M96,418 L76.5,418" stroke="#000000" />
		</g>
		<g>
			<polygon points="304.5,418,307.5,417.25,307.5,418.75," stroke="#000000" />
			<path fill="none" d=" M324,418 L304.5,418" stroke="#000000" />
		</g>
		<g>
			<polygon points="36.5,488,33.5,488.75,33.5,487.25," stroke="#000000" />
			<path fill="none" d=" M17,488 L36.5,488" stroke="#000000" />
		</g>
		<g>
			<polygon points="291.341,86.5,291.003,83.4262,292.489,83.6288," stroke="#000000" />
			<path fill="none" d=" M294,67 L291.341,86.5" stroke="#000000" />
		</g>
		<g>
			<polygon points="436.5,418,433.5,418.75,433.5,417.25," stroke="#000000" />
			<path fill="none" d=" M416,418 L436.5,418" stroke="#000000" />
		</g>
		<g>
			<polygon points="92.5,249.545,95.3174,248.271,95.5858,249.747," stroke="#000000" />
			<path fill="none" d=" M112,246 L92.5,249.545" stroke="#000000" />
		</g>
		<g>
			<polygon points="290.762,41.5,289.731,38.5846,291.224,38.4424," stroke="#000000" />
			<path fill="none" d=" M289,23 L290.762,41.5" stroke="#000000" />
		</g>
		<g>
			<polygon points="415.114,150.5,415.999,153.463,414.501,153.531," stroke="#000000" />
			<path fill="none" d=" M416,170 L415.114,150.5" stroke="#000000" />
		</g>
		<g />
		<g>
			<polygon points="331.643,36.5,331.961,39.5759,330.476,39.3638," stroke="#000000" />
			<path fill="none" d=" M329,55 L331.643,36.5" stroke="#000000" />
		</g>
		<g>
			<polygon points="65.1667,164.5,63.5065,161.891,64.9295,161.417," stroke="#000000" />
			<path fill="none" d=" M59,146 L65.1667,164.5" stroke="#000000" />
		</g>
		<g>
			<polygon points="99.5,304.227,96.5802,305.246,96.4444,303.752," stroke="#000000" />
			<path fill="none" d=" M80,306 L99.5,304.227" stroke="#000000" />
		</g>
		<g>
			<polygon points="76.5,488,79.5,487.25,79.5,488.75," stroke="#000000" />
			<path fill="none" d=" M96,488 L76.5,488" stroke="#000000" />
		</g>
		<g>
			<polygon points="78.5,38.5,76.909,41.1517,75.8483,40.091," stroke="#000000" />
			<path fill="none" d=" M64,53 L78.5,38.5" stroke="#000000" />
		</g>
		<g>
			<polygon points="121.553,229.5,120.699,232.472,119.4,231.721," stroke="#000000" />
			<path fill="none" d=" M112,246 L121.553,229.5" stroke="#000000" />
		</g>
		<g>
			<polygon points="52.5,224.375,50.2328,226.478,49.5099,225.164," stroke="#000000" />
			<path fill="none" d=" M35,234 L52.5,224.375" stroke="#000000" />
		</g>
		<g>
			<polygon points="458,247.5,457.25,244.5,458.75,244.5," stroke="#000000" />
			<path fill="none" d=" M458,228 L458,244.5" stroke="#000000" />
		</g>
		<g>
			<polygon points="21.5,61.4048,24.2447,59.9803,24.5921,61.4395," stroke="#000000" />
			<path fill="none" d=" M40,57 L21.5,61.4048" stroke="#000000" />
		</g>
		<g>
			<polygon points="228.5,302.524,231.307,301.226,231.587,302.699," stroke="#000000" />
			<path fill="none" d=" M247,299 L228.5,302.524" stroke="#000000" />
		</g>
		<g>
			<polygon points="18.9118,92.5,20.1383,89.6613,21.3299,90.5725," stroke="#000000" />
			<path fill="none" d=" M30,78 L18.9118,92.5" stroke="#000000" />
		</g>
		<g>
			<polygon points="203.5,234.028,206.024,232.241,206.568,233.639," stroke="#000000" />
			<path fill="none" d=" M219,228 L203.5,234.028" stroke="#000000" />
		</g>
		<g>
			<polygon points="459,64.5,458.25,61.5,459.75,61.5," stroke="#000000" />
			<path fill="none" d=" M459,45 L459,61.5" stroke="#000000" />
		</g>
		<g>
			<polygon points="322.762,139.5,323.224,142.558,321.731,142.415," stroke="#000000" />
			<path fill="none" d=" M321,158 L322.762,139.5" stroke="#000000" />
		</g>
		<g>
			<polygon points="125.5,227.714,128.591,227.817,128.179,229.26," stroke="#000000" />
			<path fill="none" d=" M144,233 L125.5,227.714" stroke="#000000" />
		</g>
		<g>
			<polygon points="120.5,341.357,123.576,341.039,123.364,342.524," stroke="#000000" />
			<path fill="none" d=" M139,344 L120.5,341.357" stroke="#000000" />
		</g>
		<g>
			<polygon points="317.5,381.109,314.535,381.988,314.47,380.49," stroke="#000000" />
			<path fill="none" d=" M297,382 L317.5,381.109" stroke="#000000" />
		</g>
	</g>
	<g>
		<rect x="471.5" y="450.5" width="5" height="5" />
	</g>
	<g>
		<rect x="115.5" y="338.5" width="5" height="5" />
	</g>
	<g>
		<rect x="471.5" y="485.5" width="5" height="5" />
	</g>
	<g>
		<rect x="142.5" y="147.5" width="5" height="5" />
	</g>
	<g>
		<rect x="413.5" y="485.5" width="5" height="5" />
	</g>
	<g>
		<rect x="356.5" y="485.5" width="5" height="5" />
	</g>
	<g>
		<rect x="194.5" y="72.5" width="5" height="5" />
	</g>
	<g>
		<rect x="107.5" y="174.5" width="5" height="5" />
	</g>
	<g>
		<rect x="299.5" y="485.5" width="5" height="5" />
	</g>
	<g>
		<rect x="242.5" y="485.5" width="5" height="5" />
	</g>
	<g>
		<rect x="185.5" y="485.5" width="5" height="5" />
	</g>
	<g>
		<rect x="251.5" y="33.5" width="5" height="5" />
	</g>
	<g>
		<rect x="244.5" y="296.5" width="5" height="5" />
	</g>
	<g>
		<rect x="117.5" y="92.5" width="5" height="5" />
	</g>
	<g>
		<rect x="194.5" y="338.5" width="5" height="5" />
	</g>
	<g>
		<rect x="128.5" y="485.5" width="5" height="5" />
	</g>
	<g>
		<rect x="273.5" y="338.5" width="5" height="5" />
	</g>
	<g>
		<rect x="150.5" y="485.5" width="5" height="5" />
	</g>
	<g>
		<rect x="141.5" y="230.5" width="5" height="5" />
	</g>
	<g>
		<rect x="87.5" y="247.5" width="5" height="5" />
	</g>
	<g>
		<rect x="135.5" y="179.5" width="5" height="5" />
	</g>
	<g>
		<rect x="89.5" y="14.5" width="5" height="5" />
	</g>
	<g>
		<rect x="71.5" y="485.5" width="5" height="5" />
	</g>
	<g>
		<rect x="14.5" y="485.5" width="5" height="5" />
	</g>
	<g>
		<rect x="227.5" y="174.5" width="5" height="5" />
	</g>
	<g>
		<rect x="264.5" y="485.5" width="5" height="5" />
	</g>
	<g>
		<rect x="83.5" y="63.5" width="5" height="5" />
	</g>
	<g>
		<rect x="456.5" y="42.5" width="5" height="5" />
	</g>
	<g>
		<rect x="455.5" y="225.5" width="5" height="5" />
	</g>
	<g>
		<rect x="351.5" y="340.5" width="5" height="5" />
	</g>
	<g>
		<rect x="378.5" y="485.5" width="5" height="5" />
	</g>
	<g>
		<rect x="448.5" y="145.5" width="5" height="5" />
	</g>
	<g>
		<rect x="35.5" y="380.5" width="5" height="5" />
	</g>
	<g>
		<rect x="437.5" y="295.5" width="5" height="5" />
	</g>
	<g>
		<rect x="459.5" y="295.5" width="5" height="5" />
	</g>
	<g>
		<rect x="305.5" y="234.5" width="5" height="5" />
	</g>
	<g>
		<rect x="36.5" y="485.5" width="5" height="5" />
	</g>
	<g>
		<rect x="14.5" y="377.5" width="5" height="5" />
	</g>
	<g>
		<rect x="136.5" y="341.5" width="5" height="5" />
	</g>
	<g>
		<rect x="216.5" y="225.5" width="5" height="5" />
	</g>
	<g>
		<rect x="216.5" y="247.5" width="5" height="5" />
	</g>
	<g>
		<rect x="431.5" y="379.5" width="5" height="5" />
	</g>
	<g>
		<rect x="431.5" y="340.5" width="5" height="5" />
	</g>
	<g>
		<rect x="352.5" y="378.5" width="5" height="5" />
	</g>
	<g>
		<rect x="413.5" y="450.5" width="5" height="5" />
	</g>
	<g>
		<rect x="36.5" y="341.5" width="5" height="5" />
	</g>
	<g>
		<rect x="183.5" y="53.5" width="5" height="5" />
	</g>
	<g>
		<rect x="47.5" y="35.5" width="5" height="5" />
	</g>
	<g>
		<rect x="356.5" y="450.5" width="5" height="5" />
	</g>
	<g>
		<rect x="299.5" y="450.5" width="5" height="5" />
	</g>
	<g>
		<rect x="125.5" y="160.5" width="5" height="5" />
	</g>
	<g>
		<rect x="453.5" y="378.5" width="5" height="5" />
	</g>
	<g>
		<rect x="217.5" y="156.5" width="5" height="5" />
	</g>
	<g>
		<rect x="270.5" y="147.5" width="5" height="5" />
	</g>
	<g>
		<rect x="242.5" y="450.5" width="5" height="5" />
	</g>
	<g>
		<rect x="273.5" y="378.5" width="5" height="5" />
	</g>
	<g>
		<rect x="185.5" y="450.5" width="5" height="5" />
	</g>
	<g>
		<rect x="99.5" y="301.5" width="5" height="5" />
	</g>
	<g>
		<rect x="120.5" y="224.5" width="5" height="5" />
	</g>
	<g>
		<rect x="37.5" y="54.5" width="5" height="5" />
	</g>
	<g>
		<rect x="34.5" y="253.5" width="5" height="5" />
	</g>
	<g>
		<rect x="128.5" y="450.5" width="5" height="5" />
	</g>
	<g>
		<rect x="318.5" y="155.5" width="5" height="5" />
	</g>
	<g>
		<rect x="320.5" y="134.5" width="5" height="5" />
	</g>
	<g>
		<rect x="93.5" y="378.5" width="5" height="5" />
	</g>
	<g>
		<rect x="71.5" y="450.5" width="5" height="5" />
	</g>
	<g>
		<rect x="144.5" y="296.5" width="5" height="5" />
	</g>
	<g>
		<rect x="14.5" y="219.5" width="5" height="5" />
	</g>
	<g>
		<rect x="58.5" y="377.5" width="5" height="5" />
	</g>
	<g>
		<rect x="14.5" y="127.5" width="5" height="5" />
	</g>
	<g>
		<rect x="355.5" y="156.5" width="5" height="5" />
	</g>
	<g>
		<rect x="198.5" y="232.5" width="5" height="5" />
	</g>
	<g>
		<rect x="294.5" y="341.5" width="5" height="5" />
	</g>
	<g>
		<rect x="34.5" y="136.5" width="5" height="5" />
	</g>
	<g>
		<rect x="364.5" y="53.5" width="5" height="5" />
	</g>
	<g>
		<rect x="78.5" y="33.5" width="5" height="5" />
	</g>
	<g>
		<rect x="159.5" y="340.5" width="5" height="5" />
	</g>
	<g>
		<rect x="380.5" y="295.5" width="5" height="5" />
	</g>
	<g>
		<rect x="301.5" y="294.5" width="5" height="5" />
	</g>
	<g>
		<rect x="56.5" y="298.5" width="5" height="5" />
	</g>
	<g>
		<rect x="240.5" y="51.5" width="5" height="5" />
	</g>
	<g>
		<rect x="384.5" y="225.5" width="5" height="5" />
	</g>
	<g>
		<rect x="291.5" y="64.5" width="5" height="5" />
	</g>
	<g>
		<rect x="412.5" y="145.5" width="5" height="5" />
	</g>
	<g>
		<rect x="16.5" y="59.5" width="5" height="5" />
	</g>
	<g>
		<rect x="14.5" y="415.5" width="5" height="5" />
	</g>
	<g>
		<rect x="115.5" y="379.5" width="5" height="5" />
	</g>
	<g>
		<rect x="27.5" y="39.5" width="5" height="5" />
	</g>
	<g>
		<rect x="194.5" y="155.5" width="5" height="5" />
	</g>
	<g>
		<rect x="288.5" y="41.5" width="5" height="5" />
	</g>
	<g>
		<rect x="471.5" y="415.5" width="5" height="5" />
	</g>
	<g>
		<rect x="396.5" y="339.5" width="5" height="5" />
	</g>
	<g>
		<rect x="71.5" y="415.5" width="5" height="5" />
	</g>
	<g>
		<rect x="179.5" y="294.5" width="5" height="5" />
	</g>
	<g>
		<rect x="228.5" y="137.5" width="5" height="5" />
	</g>
	<g>
		<rect x="34.5" y="294.5" width="5" height="5" />
	</g>
	<g>
		<rect x="61.5" y="50.5" width="5" height="5" />
	</g>
	<g>
		<rect x="128.5" y="415.5" width="5" height="5" />
	</g>
	<g>
		<rect x="72.5" y="184.5" width="5" height="5" />
	</g>
	<g>
		<rect x="448.5" y="167.5" width="5" height="5" />
	</g>
	<g>
		<rect x="185.5" y="415.5" width="5" height="5" />
	</g>
	<g>
		<rect x="176.5" y="238.5" width="5" height="5" />
	</g>
	<g>
		<rect x="123.5" y="298.5" width="5" height="5" />
	</g>
	<g>
		<rect x="455.5" y="247.5" width="5" height="5" />
	</g>
	<g>
		<rect x="326.5" y="52.5" width="5" height="5" />
	</g>
	<g>
		<rect x="93.5" y="450.5" width="5" height="5" />
	</g>
	<g>
		<rect x="288.5" y="86.5" width="5" height="5" />
	</g>
	<g>
		<rect x="52.5" y="220.5" width="5" height="5" />
	</g>
	<g>
		<rect x="396.5" y="378.5" width="5" height="5" />
	</g>
	<g>
		<rect x="16.5" y="14.5" width="5" height="5" />
	</g>
	<g>
		<rect x="436.5" y="450.5" width="5" height="5" />
	</g>
	<g>
		<rect x="197.5" y="241.5" width="5" height="5" />
	</g>
	<g>
		<rect x="207.5" y="415.5" width="5" height="5" />
	</g>
	<g>
		<rect x="125.5" y="76.5" width="5" height="5" />
	</g>
	<g>
		<rect x="321.5" y="485.5" width="5" height="5" />
	</g>
	<g>
		<rect x="150.5" y="415.5" width="5" height="5" />
	</g>
	<g>
		<rect x="56.5" y="143.5" width="5" height="5" />
	</g>
	<g>
		<rect x="322.5" y="297.5" width="5" height="5" />
	</g>
	<g>
		<rect x="242.5" y="415.5" width="5" height="5" />
	</g>
	<g>
		<rect x="160.5" y="52.5" width="5" height="5" />
	</g>
	<g>
		<rect x="299.5" y="415.5" width="5" height="5" />
	</g>
	<g>
		<rect x="207.5" y="485.5" width="5" height="5" />
	</g>
	<g>
		<rect x="194.5" y="378.5" width="5" height="5" />
	</g>
	<g>
		<rect x="356.5" y="415.5" width="5" height="5" />
	</g>
	<g>
		<rect x="264.5" y="415.5" width="5" height="5" />
	</g>
	<g>
		<rect x="413.5" y="415.5" width="5" height="5" />
	</g>
	<g>
		<rect x="109.5" y="243.5" width="5" height="5" />
	</g>
	<g>
		<rect x="413.5" y="167.5" width="5" height="5" />
	</g>
	<g>
		<rect x="483.5" y="156.5" width="5" height="5" />
	</g>
	<g>
		<rect x="80.5" y="340.5" width="5" height="5" />
	</g>
	<g>
		<rect x="373.5" y="341.5" width="5" height="5" />
	</g>
	<g>
		<rect x="207.5" y="450.5" width="5" height="5" />
	</g>
	<g>
		<rect x="93.5" y="485.5" width="5" height="5" />
	</g>
	<g>
		<rect x="131.5" y="248.5" width="5" height="5" />
	</g>
	<g>
		<rect x="150.5" y="450.5" width="5" height="5" />
	</g>
	<g>
		<rect x="488.5" y="340.5" width="5" height="5" />
	</g>
	<g>
		<rect x="456.5" y="64.5" width="5" height="5" />
	</g>
	<g>
		<rect x="488.5" y="378.5" width="5" height="5" />
	</g>
	<g>
		<rect x="282.5" y="145.5" width="5" height="5" />
	</g>
	<g>
		<rect x="321.5" y="415.5" width="5" height="5" />
	</g>
	<g>
		<rect x="373.5" y="379.5" width="5" height="5" />
	</g>
	<g>
		<rect x="36.5" y="415.5" width="5" height="5" />
	</g>
	<g>
		<rect x="159.5" y="132.5" width="5" height="5" />
	</g>
	<g>
		<rect x="137.5" y="379.5" width="5" height="5" />
	</g>
	<g>
		<rect x="14.5" y="92.5" width="5" height="5" />
	</g>
	<g>
		<rect x="107.5" y="146.5" width="5" height="5" />
	</g>
	<g>
		<rect x="283.5" y="166.5" width="5" height="5" />
	</g>
	<g>
		<rect x="27.5" y="75.5" width="5" height="5" />
	</g>
	<g>
		<rect x="378.5" y="450.5" width="5" height="5" />
	</g>
	<g>
		<rect x="258.5" y="227.5" width="5" height="5" />
	</g>
	<g>
		<rect x="270.5" y="226.5" width="5" height="5" />
	</g>
	<g>
		<rect x="490.5" y="236.5" width="5" height="5" />
	</g>
	<g>
		<rect x="195.5" y="35.5" width="5" height="5" />
	</g>
	<g>
		<rect x="419.5" y="225.5" width="5" height="5" />
	</g>
	<g>
		<rect x="93.5" y="415.5" width="5" height="5" />
	</g>
	<g>
		<rect x="421.5" y="42.5" width="5" height="5" />
	</g>
	<g>
		<rect x="378.5" y="415.5" width="5" height="5" />
	</g>
	<g>
		<rect x="32.5" y="231.5" width="5" height="5" />
	</g>
	<g>
		<rect x="377.5" y="156.5" width="5" height="5" />
	</g>
	<g>
		<rect x="14.5" y="450.5" width="5" height="5" />
	</g>
	<g>
		<rect x="242.5" y="74.5" width="5" height="5" />
	</g>
	<g>
		<rect x="493.5" y="485.5" width="5" height="5" />
	</g>
	<g>
		<rect x="329.5" y="31.5" width="5" height="5" />
	</g>
	<g>
		<rect x="491.5" y="53.5" width="5" height="5" />
	</g>
	<g>
		<rect x="215.5" y="341.5" width="5" height="5" />
	</g>
	<g>
		<rect x="238.5" y="340.5" width="5" height="5" />
	</g>
	<g>
		<rect x="345.5" y="296.5" width="5" height="5" />
	</g>
	<g>
		<rect x="327.5" y="238.5" width="5" height="5" />
	</g>
	<g>
		<rect x="223.5" y="300.5" width="5" height="5" />
	</g>
	<g>
		<rect x="77.5" y="303.5" width="5" height="5" />
	</g>
	<g>
		<rect x="386.5" y="53.5" width="5" height="5" />
	</g>
	<g>
		<rect x="420.5" y="247.5" width="5" height="5" />
	</g>
	<g>
		<rect x="200.5" y="299.5" width="5" height="5" />
	</g>
	<g>
		<rect x="316.5" y="340.5" width="5" height="5" />
	</g>
	<g>
		<rect x="230.5" y="32.5" width="5" height="5" />
	</g>
	<g>
		<rect x="453.5" y="340.5" width="5" height="5" />
	</g>
	<g>
		<rect x="57.5" y="342.5" width="5" height="5" />
	</g>
	<g>
		<rect x="286.5" y="20.5" width="5" height="5" />
	</g>
	<g>
		<rect x="14.5" y="288.5" width="5" height="5" />
	</g>
	<g>
		<rect x="238.5" y="378.5" width="5" height="5" />
	</g>
	<g>
		<rect x="402.5" y="295.5" width="5" height="5" />
	</g>
	<g>
		<rect x="266.5" y="290.5" width="5" height="5" />
	</g>
	<g>
		<rect x="104.5" y="75.5" width="5" height="5" />
	</g>
	<g>
		<rect x="63.5" y="164.5" width="5" height="5" />
	</g>
	<g>
		<rect x="317.5" y="378.5" width="5" height="5" />
	</g>
	<g>
		<rect x="14.5" y="338.5" width="5" height="5" />
	</g>
	<g>
		<rect x="329.5" y="75.5" width="5" height="5" />
	</g>
	<g>
		<rect x="349.5" y="236.5" width="5" height="5" />
	</g>
	<g>
		<rect x="71.5" y="127.5" width="5" height="5" />
	</g>
	<g>
		<rect x="215.5" y="379.5" width="5" height="5" />
	</g>
	<g>
		<rect x="263.5" y="159.5" width="5" height="5" />
	</g>
	<g>
		<rect x="436.5" y="485.5" width="5" height="5" />
	</g>
	<g>
		<rect x="270.5" y="246.5" width="5" height="5" />
	</g>
	<g>
		<rect x="251.5" y="239.5" width="5" height="5" />
	</g>
	<g>
		<rect x="159.5" y="377.5" width="5" height="5" />
	</g>
	<g>
		<rect x="421.5" y="64.5" width="5" height="5" />
	</g>
	<g>
		<rect x="493.5" y="450.5" width="5" height="5" />
	</g>
	<g>
		<rect x="294.5" y="379.5" width="5" height="5" />
	</g>
	<g>
		<rect x="320.5" y="178.5" width="5" height="5" />
	</g>
	<g>
		<rect x="384.5" y="247.5" width="5" height="5" />
	</g>
	<g>
		<rect x="29.5" y="31.5" width="5" height="5" />
	</g>
	<g>
		<rect x="436.5" y="415.5" width="5" height="5" />
	</g>
	<g>
		<rect x="321.5" y="450.5" width="5" height="5" />
	</g>
	<g>
		<rect x="36.5" y="450.5" width="5" height="5" />
	</g>
	<g>
		<rect x="264.5" y="450.5" width="5" height="5" />
	</g>
</svg>
