<?xml version="1.0"?>
<svg xmlns="http://www.w3.org/2000/svg" xmlns:xlink="http://www.w3.org/1999/xlink" xmlns:ev="http://www.w3.org/2001/xml-events" version="1.1" baseProfile="full" viewBox="13.5 13.5 29 61">
	<g>
		<g>
			<polygon points="36.5,71,33.5,71.75,33.5,70.25," stroke="#000000" />
			<path fill="none" d=" M17,71 L36.5,71" stroke="#000000" />
		</g>
		<g>
			<polygon points="36.5,36,33.5,36.75,33.5,35.25," stroke="#000000" />
			<path fill="none" d=" M17,36 L36.5,36" stroke="#000000" />
		</g>
		<g>
			<polygon points="26.5526,19.5,25.6986,22.4721,24.4005,21.7205," stroke="#000000" />
			<path fill="none" d=" M17,36 L26.5526,19.5" stroke="#000000" />
		</g>
		<g>
			<polygon points="29.4474,19.5,31.5995,21.7205,30.3014,22.4721," stroke="#000000" />
			<path fill="none" d=" M39,36 L29.4474,19.5" stroke="#000000" />
		</g>
	</g>
	<g>
		<rect x="14.5" y="68.5" width="5" height="5" />
	</g>
	<g>
		<rect x="36.5" y="68.5" width="5" height="5" />
	</g>
	<g>
		<rect x="14.5" y="33.5" width="5" height="5" />
	</g>
	<g>
		<rect x="36.5" y="33.5" width="5" height="5" />
	</g>
	<g>
		<rect x="25.5" y="14.5" width="5" height="5" />
	</g>
</svg>
