<?xml version="1.0"?>
<svg xmlns="http://www.w3.org/2000/svg" xmlns:xlink="http://www.w3.org/1999/xlink" xmlns:ev="http://www.w3.org/2001/xml-events" version="1.1" baseProfile="full" viewBox="13.5 13.5 29 62">
	<g>
		<g>
			<polygon points="19.5,71.8864,22.4628,71.0009,22.531,72.4994," stroke="#000000" />
			<path fill="none" d=" M39,71 L19.5,71.8864" stroke="#000000" />
		</g>
		<g>
			<polygon points="28.5789,33.5,29.5468,30.563,30.815,31.364," stroke="#000000" />
			<path fill="none" d=" M39,17 L28.5789,33.5" stroke="#000000" />
		</g>
		<g>
			<polygon points="19.5,17,22.5,16.25,22.5,17.75," stroke="#000000" />
			<path fill="none" d=" M39,17 L19.5,17" stroke="#000000" />
		</g>
		<g>
			<polygon points="18.3158,19.5,20.3767,21.8054,19.0493,22.5041," stroke="#000000" />
			<path fill="none" d=" M27,36 L18.3158,19.5" stroke="#000000" />
		</g>
	</g>
	<g>
		<rect x="36.5" y="68.5" width="5" height="5" />
	</g>
	<g>
		<rect x="14.5" y="69.5" width="5" height="5" />
	</g>
	<g>
		<rect x="36.5" y="14.5" width="5" height="5" />
	</g>
	<g>
		<rect x="24.5" y="33.5" width="5" height="5" />
	</g>
	<g>
		<rect x="14.5" y="14.5" width="5" height="5" />
	</g>
</svg>
